<?xml version="1.0" encoding="us-ascii" standalone="no"?><svg xmlns="http://www.w3.org/2000/svg" xmlns:xlink="http://www.w3.org/1999/xlink" contentStyleType="text/css" height="290px" preserveAspectRatio="none" style="width:1031px;height:290px;background:#FFFFFF;" version="1.1" viewBox="0 0 1031 290" width="1031px" zoomAndPan="magnify"><defs/><g><!--class class--><g id="elem_class"><rect codeLine="5" fill="#F1F1F1" height="83.2188" id="class" rx="2.5" ry="2.5" style="stroke:#181818;stroke-width:0.5;" width="199" x="7" y="182.5"/><ellipse cx="67.25" cy="198.5" fill="#ADD1B2" rx="11" ry="11" style="stroke:#181818;stroke-width:1.0;"/><path d="M66.1094,199.2969 L66.1094,201.7969 L70.4375,201.7969 L70.4375,200.875 Q70.4375,200.2656 70.6719,200 Q70.9219,199.7344 71.2969,199.7344 Q71.6719,199.7344 71.9063,200 Q72.1406,200.2656 72.1406,200.875 L72.1406,203.5 L64.1406,203.5 Q63.5156,203.5 63.25,203.2656 Q63,203.0313 63,202.6406 Q63,202.2656 63.2656,202.0313 Q63.5313,201.7969 64.1406,201.7969 L64.4063,201.7969 L64.4063,195.1406 L64.1406,195.1406 Q63.5156,195.1406 63.25,194.9063 Q63,194.6719 63,194.2813 Q63,193.9063 63.25,193.6719 Q63.5156,193.4375 64.1406,193.4375 L71.7656,193.4375 L71.7656,196.0313 Q71.7656,196.6406 71.5313,196.9063 Q71.3125,197.1563 70.9219,197.1563 Q70.5469,197.1563 70.3125,196.9063 Q70.0781,196.6406 70.0781,196.0313 L70.0781,195.1406 L66.1094,195.1406 L66.1094,197.5938 L67.5938,197.5938 Q67.5938,196.9375 67.7188,196.75 Q67.9844,196.3438 68.4531,196.3438 Q68.8281,196.3438 69.0625,196.6094 Q69.2969,196.8594 69.2969,197.4688 L69.2969,199.4375 Q69.2969,199.9844 69.1719,200.1719 Q68.9063,200.5625 68.4531,200.5625 Q67.9844,200.5625 67.7188,200.1563 Q67.5938,199.9688 67.5938,199.2969 L66.1094,199.2969 Z " fill="#000000"/><text fill="#000000" font-family="sans-serif" font-size="14" lengthAdjust="spacing" textLength="70" x="87.75" y="204.2285">&#35838;&#31243;(class)</text><line style="stroke:#181818;stroke-width:0.5;" x1="8" x2="205" y1="214.5" y2="214.5"/><ellipse cx="18" cy="228.8047" fill="none" rx="3" ry="3" style="stroke:#038048;stroke-width:1.0;"/><text fill="#000000" font-family="sans-serif" font-size="14" lengthAdjust="spacing" textLength="82" x="27" y="233.0332">id : INT &#171;PK&#187;</text><line style="stroke:#181818;stroke-width:1.0;" x1="8" x2="205" y1="240.1094" y2="240.1094"/><text fill="#000000" font-family="sans-serif" font-size="14" lengthAdjust="spacing" textLength="187" x="13" y="258.6426">class_name : VARCHAR(200)</text></g><!--class task--><g id="elem_task"><rect codeLine="11" fill="#F1F1F1" height="118.4375" id="task" rx="2.5" ry="2.5" style="stroke:#181818;stroke-width:0.5;" width="147" x="286" y="165"/><ellipse cx="323.95" cy="181" fill="#ADD1B2" rx="11" ry="11" style="stroke:#181818;stroke-width:1.0;"/><path d="M322.8094,181.7969 L322.8094,184.2969 L327.1375,184.2969 L327.1375,183.375 Q327.1375,182.7656 327.3719,182.5 Q327.6219,182.2344 327.9969,182.2344 Q328.3719,182.2344 328.6063,182.5 Q328.8406,182.7656 328.8406,183.375 L328.8406,186 L320.8406,186 Q320.2156,186 319.95,185.7656 Q319.7,185.5313 319.7,185.1406 Q319.7,184.7656 319.9656,184.5313 Q320.2313,184.2969 320.8406,184.2969 L321.1063,184.2969 L321.1063,177.6406 L320.8406,177.6406 Q320.2156,177.6406 319.95,177.4063 Q319.7,177.1719 319.7,176.7813 Q319.7,176.4063 319.95,176.1719 Q320.2156,175.9375 320.8406,175.9375 L328.4656,175.9375 L328.4656,178.5313 Q328.4656,179.1406 328.2313,179.4063 Q328.0125,179.6563 327.6219,179.6563 Q327.2469,179.6563 327.0125,179.4063 Q326.7781,179.1406 326.7781,178.5313 L326.7781,177.6406 L322.8094,177.6406 L322.8094,180.0938 L324.2938,180.0938 Q324.2938,179.4375 324.4188,179.25 Q324.6844,178.8438 325.1531,178.8438 Q325.5281,178.8438 325.7625,179.1094 Q325.9969,179.3594 325.9969,179.9688 L325.9969,181.9375 Q325.9969,182.4844 325.8719,182.6719 Q325.6063,183.0625 325.1531,183.0625 Q324.6844,183.0625 324.4188,182.6563 Q324.2938,182.4688 324.2938,181.7969 L322.8094,181.7969 Z " fill="#000000"/><text fill="#000000" font-family="sans-serif" font-size="14" lengthAdjust="spacing" textLength="64" x="343.05" y="186.7285">&#20316;&#19994;(task)</text><line style="stroke:#181818;stroke-width:0.5;" x1="287" x2="432" y1="197" y2="197"/><ellipse cx="297" cy="211.3047" fill="none" rx="3" ry="3" style="stroke:#038048;stroke-width:1.0;"/><text fill="#000000" font-family="sans-serif" font-size="14" lengthAdjust="spacing" textLength="82" x="306" y="215.5332">id : INT &#171;PK&#187;</text><line style="stroke:#181818;stroke-width:1.0;" x1="287" x2="432" y1="222.6094" y2="222.6094"/><text fill="#000000" font-family="sans-serif" font-size="14" lengthAdjust="spacing" textLength="122" x="292" y="241.1426">class_id : INT &#171;FK&#187;</text><text fill="#000000" font-family="sans-serif" font-size="14" lengthAdjust="spacing" textLength="134" x="292" y="258.752">title : VARCHAR(200)</text><text fill="#000000" font-family="sans-serif" font-size="14" lengthAdjust="spacing" textLength="135" x="292" y="276.3613">deadline : DATETIME</text></g><!--class user--><g id="elem_user"><rect codeLine="19" fill="#F1F1F1" height="100.8281" id="user" rx="2.5" ry="2.5" style="stroke:#181818;stroke-width:0.5;" width="187" x="266" y="24.5"/><ellipse cx="322.25" cy="40.5" fill="#ADD1B2" rx="11" ry="11" style="stroke:#181818;stroke-width:1.0;"/><path d="M321.1094,41.2969 L321.1094,43.7969 L325.4375,43.7969 L325.4375,42.875 Q325.4375,42.2656 325.6719,42 Q325.9219,41.7344 326.2969,41.7344 Q326.6719,41.7344 326.9063,42 Q327.1406,42.2656 327.1406,42.875 L327.1406,45.5 L319.1406,45.5 Q318.5156,45.5 318.25,45.2656 Q318,45.0313 318,44.6406 Q318,44.2656 318.2656,44.0313 Q318.5313,43.7969 319.1406,43.7969 L319.4063,43.7969 L319.4063,37.1406 L319.1406,37.1406 Q318.5156,37.1406 318.25,36.9063 Q318,36.6719 318,36.2813 Q318,35.9063 318.25,35.6719 Q318.5156,35.4375 319.1406,35.4375 L326.7656,35.4375 L326.7656,38.0313 Q326.7656,38.6406 326.5313,38.9063 Q326.3125,39.1563 325.9219,39.1563 Q325.5469,39.1563 325.3125,38.9063 Q325.0781,38.6406 325.0781,38.0313 L325.0781,37.1406 L321.1094,37.1406 L321.1094,39.5938 L322.5938,39.5938 Q322.5938,38.9375 322.7188,38.75 Q322.9844,38.3438 323.4531,38.3438 Q323.8281,38.3438 324.0625,38.6094 Q324.2969,38.8594 324.2969,39.4688 L324.2969,41.4375 Q324.2969,41.9844 324.1719,42.1719 Q323.9063,42.5625 323.4531,42.5625 Q322.9844,42.5625 322.7188,42.1563 Q322.5938,41.9688 322.5938,41.2969 L321.1094,41.2969 Z " fill="#000000"/><text fill="#000000" font-family="sans-serif" font-size="14" lengthAdjust="spacing" textLength="66" x="342.75" y="46.2285">&#29992;&#25143;(user)</text><line style="stroke:#181818;stroke-width:0.5;" x1="267" x2="452" y1="56.5" y2="56.5"/><ellipse cx="277" cy="70.8047" fill="none" rx="3" ry="3" style="stroke:#038048;stroke-width:1.0;"/><text fill="#000000" font-family="sans-serif" font-size="14" lengthAdjust="spacing" textLength="82" x="286" y="75.0332">id : INT &#171;PK&#187;</text><line style="stroke:#181818;stroke-width:1.0;" x1="267" x2="452" y1="82.1094" y2="82.1094"/><text fill="#000000" font-family="sans-serif" font-size="14" lengthAdjust="spacing" textLength="175" x="272" y="100.6426">username : VARCHAR(100)</text><text fill="#000000" font-family="sans-serif" font-size="14" lengthAdjust="spacing" textLength="57" x="272" y="118.252">role : INT</text></g><!--class note--><g id="elem_note"><rect codeLine="26" fill="#F1F1F1" height="136.0469" id="note" rx="2.5" ry="2.5" style="stroke:#181818;stroke-width:0.5;" width="146" x="557.5" y="7"/><ellipse cx="594.1" cy="23" fill="#ADD1B2" rx="11" ry="11" style="stroke:#181818;stroke-width:1.0;"/><path d="M592.9594,23.7969 L592.9594,26.2969 L597.2875,26.2969 L597.2875,25.375 Q597.2875,24.7656 597.5219,24.5 Q597.7719,24.2344 598.1469,24.2344 Q598.5219,24.2344 598.7563,24.5 Q598.9906,24.7656 598.9906,25.375 L598.9906,28 L590.9906,28 Q590.3656,28 590.1,27.7656 Q589.85,27.5313 589.85,27.1406 Q589.85,26.7656 590.1156,26.5313 Q590.3813,26.2969 590.9906,26.2969 L591.2563,26.2969 L591.2563,19.6406 L590.9906,19.6406 Q590.3656,19.6406 590.1,19.4063 Q589.85,19.1719 589.85,18.7813 Q589.85,18.4063 590.1,18.1719 Q590.3656,17.9375 590.9906,17.9375 L598.6156,17.9375 L598.6156,20.5313 Q598.6156,21.1406 598.3813,21.4063 Q598.1625,21.6563 597.7719,21.6563 Q597.3969,21.6563 597.1625,21.4063 Q596.9281,21.1406 596.9281,20.5313 L596.9281,19.6406 L592.9594,19.6406 L592.9594,22.0938 L594.4438,22.0938 Q594.4438,21.4375 594.5688,21.25 Q594.8344,20.8438 595.3031,20.8438 Q595.6781,20.8438 595.9125,21.1094 Q596.1469,21.3594 596.1469,21.9688 L596.1469,23.9375 Q596.1469,24.4844 596.0219,24.6719 Q595.7563,25.0625 595.3031,25.0625 Q594.8344,25.0625 594.5688,24.6563 Q594.4438,24.4688 594.4438,23.7969 L592.9594,23.7969 Z " fill="#000000"/><text fill="#000000" font-family="sans-serif" font-size="14" lengthAdjust="spacing" textLength="66" x="612.9" y="28.7285">&#31508;&#35760;(note)</text><line style="stroke:#181818;stroke-width:0.5;" x1="558.5" x2="702.5" y1="39" y2="39"/><ellipse cx="568.5" cy="53.3047" fill="none" rx="3" ry="3" style="stroke:#038048;stroke-width:1.0;"/><text fill="#000000" font-family="sans-serif" font-size="14" lengthAdjust="spacing" textLength="82" x="577.5" y="57.5332">id : INT &#171;PK&#187;</text><line style="stroke:#181818;stroke-width:1.0;" x1="558.5" x2="702.5" y1="64.6094" y2="64.6094"/><text fill="#000000" font-family="sans-serif" font-size="14" lengthAdjust="spacing" textLength="118" x="563.5" y="83.1426">user_id : INT &#171;FK&#187;</text><text fill="#000000" font-family="sans-serif" font-size="14" lengthAdjust="spacing" textLength="116" x="563.5" y="100.752">task_id : INT &#171;FK&#187;</text><text fill="#000000" font-family="sans-serif" font-size="14" lengthAdjust="spacing" textLength="134" x="563.5" y="118.3613">title : VARCHAR(200)</text><text fill="#000000" font-family="sans-serif" font-size="14" lengthAdjust="spacing" textLength="99" x="563.5" y="135.9707">vision : TINYINT</text></g><!--class summary--><g id="elem_summary"><rect codeLine="35" fill="#F1F1F1" height="100.8281" id="summary" rx="2.5" ry="2.5" style="stroke:#181818;stroke-width:0.5;" width="235" x="513" y="178.5"/><ellipse cx="528" cy="194.5" fill="#ADD1B2" rx="11" ry="11" style="stroke:#181818;stroke-width:1.0;"/><path d="M526.8594,195.2969 L526.8594,197.7969 L531.1875,197.7969 L531.1875,196.875 Q531.1875,196.2656 531.4219,196 Q531.6719,195.7344 532.0469,195.7344 Q532.4219,195.7344 532.6563,196 Q532.8906,196.2656 532.8906,196.875 L532.8906,199.5 L524.8906,199.5 Q524.2656,199.5 524,199.2656 Q523.75,199.0313 523.75,198.6406 Q523.75,198.2656 524.0156,198.0313 Q524.2813,197.7969 524.8906,197.7969 L525.1563,197.7969 L525.1563,191.1406 L524.8906,191.1406 Q524.2656,191.1406 524,190.9063 Q523.75,190.6719 523.75,190.2813 Q523.75,189.9063 524,189.6719 Q524.2656,189.4375 524.8906,189.4375 L532.5156,189.4375 L532.5156,192.0313 Q532.5156,192.6406 532.2813,192.9063 Q532.0625,193.1563 531.6719,193.1563 Q531.2969,193.1563 531.0625,192.9063 Q530.8281,192.6406 530.8281,192.0313 L530.8281,191.1406 L526.8594,191.1406 L526.8594,193.5938 L528.3438,193.5938 Q528.3438,192.9375 528.4688,192.75 Q528.7344,192.3438 529.2031,192.3438 Q529.5781,192.3438 529.8125,192.6094 Q530.0469,192.8594 530.0469,193.4688 L530.0469,195.4375 Q530.0469,195.9844 529.9219,196.1719 Q529.6563,196.5625 529.2031,196.5625 Q528.7344,196.5625 528.4688,196.1563 Q528.3438,195.9688 528.3438,195.2969 L526.8594,195.2969 Z " fill="#000000"/><text fill="#000000" font-family="sans-serif" font-size="14" lengthAdjust="spacing" textLength="203" x="542" y="200.2285">&#20316;&#19994;&#24635;&#32467;(assignment_summary)</text><line style="stroke:#181818;stroke-width:0.5;" x1="514" x2="747" y1="210.5" y2="210.5"/><ellipse cx="524" cy="224.8047" fill="none" rx="3" ry="3" style="stroke:#038048;stroke-width:1.0;"/><text fill="#000000" font-family="sans-serif" font-size="14" lengthAdjust="spacing" textLength="105" x="533" y="229.0332">id : BIGINT &#171;PK&#187;</text><line style="stroke:#181818;stroke-width:1.0;" x1="514" x2="747" y1="236.1094" y2="236.1094"/><text fill="#000000" font-family="sans-serif" font-size="14" lengthAdjust="spacing" textLength="139" x="519" y="254.6426">task_id : BIGINT &#171;FK&#187;</text><text fill="#000000" font-family="sans-serif" font-size="14" lengthAdjust="spacing" textLength="143" x="519" y="272.252">summary : LONGTEXT</text></g><g id="elem_GMN11"><path d="M808,45.5 L808,71 L703.65,75 L808,79 L808,104.5547 A0,0 0 0 0 808,104.5547 L1024,104.5547 A0,0 0 0 0 1024,104.5547 L1024,55.5 L1014,45.5 L808,45.5 A0,0 0 0 0 808,45.5 " fill="#FEFFDD" style="stroke:#181818;stroke-width:0.5;"/><path d="M1014,45.5 L1014,55.5 L1024,55.5 L1014,45.5 " fill="#FEFFDD" style="stroke:#181818;stroke-width:0.5;"/><text fill="#000000" font-family="sans-serif" font-size="13" lengthAdjust="spacing" textLength="157" x="814" y="63.9951">note.task_id &#20851;&#32852; task.id&#65292;</text><text fill="#000000" font-family="sans-serif" font-size="13" lengthAdjust="spacing" textLength="143" x="814" y="80.3467">&#34920;&#31034;&#35813;&#31508;&#35760;&#30340;&#26469;&#28304;&#20316;&#19994;&#12290;</text><text fill="#000000" font-family="sans-serif" font-size="13" lengthAdjust="spacing" textLength="195" x="814" y="96.6982">&#21487;&#20026;&#31354;&#65292;&#34920;&#31034;&#38750;&#20316;&#19994;&#30340;&#33258;&#30001;&#31508;&#35760;&#12290;</text></g><!--link class to task--><g id="link_class_task"><path codeLine="43" d="M206.13,224 C232.68,224 260.88,224 285.77,224 " fill="none" id="class-task" style="stroke:#181818;stroke-width:1.0;"/><text fill="#000000" font-family="sans-serif" font-size="13" lengthAdjust="spacing" textLength="26" x="218.95" y="238.4951">&#21457;&#24067;</text><text fill="#000000" font-family="sans-serif" font-size="13" lengthAdjust="spacing" textLength="7" x="214.0259" y="238.1127">1</text><text fill="#000000" font-family="sans-serif" font-size="13" lengthAdjust="spacing" textLength="7" x="270.8057" y="238.3157">n</text></g><!--link task to note--><g id="link_task_note"><path codeLine="44" d="M433.33,171.75 C513.73,171.75 631,171.75 631,171.75 C631,171.75 631,159.25 631,143.25 " fill="none" id="task-note" style="stroke:#181818;stroke-width:1.0;"/><text fill="#000000" font-family="sans-serif" font-size="13" lengthAdjust="spacing" textLength="117" x="547.42" y="172.7451">&#34987;&#20851;&#32852;&#65288;&#20316;&#19994;&#31508;&#35760;&#65289;</text><text fill="#000000" font-family="sans-serif" font-size="13" lengthAdjust="spacing" textLength="7" x="440.9422" y="180.885">1</text><text fill="#000000" font-family="sans-serif" font-size="13" lengthAdjust="spacing" textLength="7" x="623.6906" y="164.6241">n</text></g><!--link task to summary--><g id="link_task_summary"><path codeLine="45" d="M433.19,229 C457.8,229 485.87,229 512.96,229 " fill="none" id="task-summary" style="stroke:#181818;stroke-width:1.0;"/><text fill="#000000" font-family="sans-serif" font-size="13" lengthAdjust="spacing" textLength="52" x="420.08" y="225.4951">&#25317;&#26377;&#24635;&#32467;</text><text fill="#000000" font-family="sans-serif" font-size="13" lengthAdjust="spacing" textLength="7" x="441.1502" y="243.8313">1</text><text fill="#000000" font-family="sans-serif" font-size="13" lengthAdjust="spacing" textLength="7" x="497.8276" y="243.0502">1</text></g><!--link user to note--><g id="link_user_note"><path codeLine="46" d="M453.14,75 C487.26,75 525.3,75 557.38,75 " fill="none" id="user-note" style="stroke:#181818;stroke-width:1.0;"/><text fill="#000000" font-family="sans-serif" font-size="13" lengthAdjust="spacing" textLength="26" x="478.26" y="89.4951">&#21019;&#20316;</text><text fill="#000000" font-family="sans-serif" font-size="13" lengthAdjust="spacing" textLength="7" x="460.8808" y="89.1535">1</text><text fill="#000000" font-family="sans-serif" font-size="13" lengthAdjust="spacing" textLength="7" x="542.4786" y="89.3358">n</text></g><!--SRC=[ZPDVQzDG6CRlpwTuEJVBa8tDop86LUiiQfKHHAz6MCwsmvfa96T24M7gXYqRJh4Wn5MOMAX_M9LTMDFgbp7_lEfNyCqvdQtTqDqa9-Tvp_F-dZV91CIjmwZnAWps-Zq__7uGTlomyopvL4-FFfCoMn4W773vwfe0axjiMN379juwjpSCrx2Wp6qcAXiC75UiEOGmMt1H0PgsVoIjNMsvR7ZU90N30xc41mJW0d0JSb0iwJ0tT_lw_3pkJKtXHPOisOR5KBwJNxnyBR-eNPoPcIGFXywAKHE6jwwCizLvV4V4gqf4m_AfLW0cCymi5ofNydf1BzuiZ08azLPS_QfjUinL0Ddgtm1PnLYiMTNBTIG17lchXHo_PZk2gHRPwlyjpeg8mpb_yllSmzUB-tgnT6-CISqztkectPSQpfElsXPgIzwcPHbkHN4E7aPHBnKNJjCEiVx80x8JXnpSk5LQq0jt9SG4H3l7oN4tElB3RpMYlYKwIz4Dg4tLDv036ks_Y3fFA97F8xgS7-hfsuzeb3wgztjL5KYDkj-hZHt2sn25nhlD-A2cmbCYN_WPxb7rDPfIGkI6-ccS5IbZikmsVH9SKKZkQMxsUtjOa1wsadT1scugfiJVZXlDE7YkG7zkFSQQQByTTeBaVO17LFslnfj14dyxVVeXgNzHnxDwPfkoxMy0]--></g></svg>