<?xml version="1.0" encoding="us-ascii" standalone="no"?><svg xmlns="http://www.w3.org/2000/svg" xmlns:xlink="http://www.w3.org/1999/xlink" contentStyleType="text/css" height="727px" preserveAspectRatio="none" style="width:866px;height:727px;background:#FFFFFF;" version="1.1" viewBox="0 0 866 727" width="866px" zoomAndPan="magnify"><defs/><g><!--class note--><g id="elem_note"><rect codeLine="5" fill="#F1F1F1" height="100.8281" id="note" rx="2.5" ry="2.5" style="stroke:#181818;stroke-width:0.5;" width="146" x="7" y="292.5"/><ellipse cx="43.6" cy="308.5" fill="#ADD1B2" rx="11" ry="11" style="stroke:#181818;stroke-width:1.0;"/><path d="M42.4594,309.2969 L42.4594,311.7969 L46.7875,311.7969 L46.7875,310.875 Q46.7875,310.2656 47.0219,310 Q47.2719,309.7344 47.6469,309.7344 Q48.0219,309.7344 48.2563,310 Q48.4906,310.2656 48.4906,310.875 L48.4906,313.5 L40.4906,313.5 Q39.8656,313.5 39.6,313.2656 Q39.35,313.0313 39.35,312.6406 Q39.35,312.2656 39.6156,312.0313 Q39.8813,311.7969 40.4906,311.7969 L40.7563,311.7969 L40.7563,305.1406 L40.4906,305.1406 Q39.8656,305.1406 39.6,304.9063 Q39.35,304.6719 39.35,304.2813 Q39.35,303.9063 39.6,303.6719 Q39.8656,303.4375 40.4906,303.4375 L48.1156,303.4375 L48.1156,306.0313 Q48.1156,306.6406 47.8813,306.9063 Q47.6625,307.1563 47.2719,307.1563 Q46.8969,307.1563 46.6625,306.9063 Q46.4281,306.6406 46.4281,306.0313 L46.4281,305.1406 L42.4594,305.1406 L42.4594,307.5938 L43.9438,307.5938 Q43.9438,306.9375 44.0688,306.75 Q44.3344,306.3438 44.8031,306.3438 Q45.1781,306.3438 45.4125,306.6094 Q45.6469,306.8594 45.6469,307.4688 L45.6469,309.4375 Q45.6469,309.9844 45.5219,310.1719 Q45.2563,310.5625 44.8031,310.5625 Q44.3344,310.5625 44.0688,310.1563 Q43.9438,309.9688 43.9438,309.2969 L42.4594,309.2969 Z " fill="#000000"/><text fill="#000000" font-family="sans-serif" font-size="14" lengthAdjust="spacing" textLength="66" x="62.4" y="314.2285">&#31508;&#35760;(note)</text><line style="stroke:#181818;stroke-width:0.5;" x1="8" x2="152" y1="324.5" y2="324.5"/><ellipse cx="18" cy="338.8047" fill="none" rx="3" ry="3" style="stroke:#038048;stroke-width:1.0;"/><text fill="#000000" font-family="sans-serif" font-size="14" lengthAdjust="spacing" textLength="82" x="27" y="343.0332">id : INT &#171;PK&#187;</text><line style="stroke:#181818;stroke-width:1.0;" x1="8" x2="152" y1="350.1094" y2="350.1094"/><text fill="#000000" font-family="sans-serif" font-size="14" lengthAdjust="spacing" textLength="134" x="13" y="368.6426">title : VARCHAR(200)</text><text fill="#000000" font-family="sans-serif" font-size="14" lengthAdjust="spacing" textLength="118" x="13" y="386.252">user_id : INT &#171;FK&#187;</text></g><!--class tag--><g id="elem_tag"><rect codeLine="12" fill="#F1F1F1" height="100.8281" id="tag" rx="2.5" ry="2.5" style="stroke:#181818;stroke-width:0.5;" width="188" x="647.5" y="15.5"/><ellipse cx="708.25" cy="31.5" fill="#ADD1B2" rx="11" ry="11" style="stroke:#181818;stroke-width:1.0;"/><path d="M707.1094,32.2969 L707.1094,34.7969 L711.4375,34.7969 L711.4375,33.875 Q711.4375,33.2656 711.6719,33 Q711.9219,32.7344 712.2969,32.7344 Q712.6719,32.7344 712.9063,33 Q713.1406,33.2656 713.1406,33.875 L713.1406,36.5 L705.1406,36.5 Q704.5156,36.5 704.25,36.2656 Q704,36.0313 704,35.6406 Q704,35.2656 704.2656,35.0313 Q704.5313,34.7969 705.1406,34.7969 L705.4063,34.7969 L705.4063,28.1406 L705.1406,28.1406 Q704.5156,28.1406 704.25,27.9063 Q704,27.6719 704,27.2813 Q704,26.9063 704.25,26.6719 Q704.5156,26.4375 705.1406,26.4375 L712.7656,26.4375 L712.7656,29.0313 Q712.7656,29.6406 712.5313,29.9063 Q712.3125,30.1563 711.9219,30.1563 Q711.5469,30.1563 711.3125,29.9063 Q711.0781,29.6406 711.0781,29.0313 L711.0781,28.1406 L707.1094,28.1406 L707.1094,30.5938 L708.5938,30.5938 Q708.5938,29.9375 708.7188,29.75 Q708.9844,29.3438 709.4531,29.3438 Q709.8281,29.3438 710.0625,29.6094 Q710.2969,29.8594 710.2969,30.4688 L710.2969,32.4375 Q710.2969,32.9844 710.1719,33.1719 Q709.9063,33.5625 709.4531,33.5625 Q708.9844,33.5625 708.7188,33.1563 Q708.5938,32.9688 708.5938,32.2969 L707.1094,32.2969 Z " fill="#000000"/><text fill="#000000" font-family="sans-serif" font-size="14" lengthAdjust="spacing" textLength="58" x="728.75" y="37.2285">&#26631;&#31614;(tag)</text><line style="stroke:#181818;stroke-width:0.5;" x1="648.5" x2="834.5" y1="47.5" y2="47.5"/><ellipse cx="658.5" cy="61.8047" fill="none" rx="3" ry="3" style="stroke:#038048;stroke-width:1.0;"/><text fill="#000000" font-family="sans-serif" font-size="14" lengthAdjust="spacing" textLength="82" x="667.5" y="66.0332">id : INT &#171;PK&#187;</text><line style="stroke:#181818;stroke-width:1.0;" x1="648.5" x2="834.5" y1="73.1094" y2="73.1094"/><text fill="#000000" font-family="sans-serif" font-size="14" lengthAdjust="spacing" textLength="176" x="653.5" y="91.6426">name : VARCHAR(50) &#171;U1&#187;</text><text fill="#000000" font-family="sans-serif" font-size="14" lengthAdjust="spacing" textLength="159" x="653.5" y="109.252">category : VARCHAR(50)</text></g><!--class note_tag--><g id="elem_note_tag"><rect codeLine="19" fill="#F1F1F1" height="118.4375" id="note_tag" rx="2.5" ry="2.5" style="stroke:#181818;stroke-width:0.5;" width="187" x="364.5" y="7"/><ellipse cx="379.5" cy="23" fill="#ADD1B2" rx="11" ry="11" style="stroke:#181818;stroke-width:1.0;"/><path d="M378.3594,23.7969 L378.3594,26.2969 L382.6875,26.2969 L382.6875,25.375 Q382.6875,24.7656 382.9219,24.5 Q383.1719,24.2344 383.5469,24.2344 Q383.9219,24.2344 384.1563,24.5 Q384.3906,24.7656 384.3906,25.375 L384.3906,28 L376.3906,28 Q375.7656,28 375.5,27.7656 Q375.25,27.5313 375.25,27.1406 Q375.25,26.7656 375.5156,26.5313 Q375.7813,26.2969 376.3906,26.2969 L376.6563,26.2969 L376.6563,19.6406 L376.3906,19.6406 Q375.7656,19.6406 375.5,19.4063 Q375.25,19.1719 375.25,18.7813 Q375.25,18.4063 375.5,18.1719 Q375.7656,17.9375 376.3906,17.9375 L384.0156,17.9375 L384.0156,20.5313 Q384.0156,21.1406 383.7813,21.4063 Q383.5625,21.6563 383.1719,21.6563 Q382.7969,21.6563 382.5625,21.4063 Q382.3281,21.1406 382.3281,20.5313 L382.3281,19.6406 L378.3594,19.6406 L378.3594,22.0938 L379.8438,22.0938 Q379.8438,21.4375 379.9688,21.25 Q380.2344,20.8438 380.7031,20.8438 Q381.0781,20.8438 381.3125,21.1094 Q381.5469,21.3594 381.5469,21.9688 L381.5469,23.9375 Q381.5469,24.4844 381.4219,24.6719 Q381.1563,25.0625 380.7031,25.0625 Q380.2344,25.0625 379.9688,24.6563 Q379.8438,24.4688 379.8438,23.7969 L378.3594,23.7969 Z " fill="#000000"/><text fill="#000000" font-family="sans-serif" font-size="14" lengthAdjust="spacing" textLength="155" x="393.5" y="28.7285">&#31508;&#35760;-&#26631;&#31614;&#20851;&#32852;(note_tag)</text><line style="stroke:#181818;stroke-width:0.5;" x1="365.5" x2="550.5" y1="39" y2="39"/><ellipse cx="375.5" cy="53.3047" fill="none" rx="3" ry="3" style="stroke:#038048;stroke-width:1.0;"/><text fill="#000000" font-family="sans-serif" font-size="14" lengthAdjust="spacing" textLength="82" x="384.5" y="57.5332">id : INT &#171;PK&#187;</text><line style="stroke:#181818;stroke-width:1.0;" x1="365.5" x2="550.5" y1="64.6094" y2="64.6094"/><text fill="#000000" font-family="sans-serif" font-size="14" lengthAdjust="spacing" textLength="118" x="370.5" y="83.1426">note_id : INT &#171;FK&#187;</text><text fill="#000000" font-family="sans-serif" font-size="14" lengthAdjust="spacing" textLength="110" x="370.5" y="100.752">tag_id : INT &#171;FK&#187;</text><text fill="#000000" font-family="sans-serif" font-size="14" lengthAdjust="spacing" textLength="141" x="370.5" y="118.3613">&#171;U1&#187; (note_id, tag_id)</text></g><!--class comment--><g id="elem_comment"><rect codeLine="27" fill="#F1F1F1" height="118.4375" id="comment" rx="2.5" ry="2.5" style="stroke:#181818;stroke-width:0.5;" width="191" x="362.5" y="160"/><ellipse cx="377.5" cy="176" fill="#ADD1B2" rx="11" ry="11" style="stroke:#181818;stroke-width:1.0;"/><path d="M376.3594,176.7969 L376.3594,179.2969 L380.6875,179.2969 L380.6875,178.375 Q380.6875,177.7656 380.9219,177.5 Q381.1719,177.2344 381.5469,177.2344 Q381.9219,177.2344 382.1563,177.5 Q382.3906,177.7656 382.3906,178.375 L382.3906,181 L374.3906,181 Q373.7656,181 373.5,180.7656 Q373.25,180.5313 373.25,180.1406 Q373.25,179.7656 373.5156,179.5313 Q373.7813,179.2969 374.3906,179.2969 L374.6563,179.2969 L374.6563,172.6406 L374.3906,172.6406 Q373.7656,172.6406 373.5,172.4063 Q373.25,172.1719 373.25,171.7813 Q373.25,171.4063 373.5,171.1719 Q373.7656,170.9375 374.3906,170.9375 L382.0156,170.9375 L382.0156,173.5313 Q382.0156,174.1406 381.7813,174.4063 Q381.5625,174.6563 381.1719,174.6563 Q380.7969,174.6563 380.5625,174.4063 Q380.3281,174.1406 380.3281,173.5313 L380.3281,172.6406 L376.3594,172.6406 L376.3594,175.0938 L377.8438,175.0938 Q377.8438,174.4375 377.9688,174.25 Q378.2344,173.8438 378.7031,173.8438 Q379.0781,173.8438 379.3125,174.1094 Q379.5469,174.3594 379.5469,174.9688 L379.5469,176.9375 Q379.5469,177.4844 379.4219,177.6719 Q379.1563,178.0625 378.7031,178.0625 Q378.2344,178.0625 377.9688,177.6563 Q377.8438,177.4688 377.8438,176.7969 L376.3594,176.7969 Z " fill="#000000"/><text fill="#000000" font-family="sans-serif" font-size="14" lengthAdjust="spacing" textLength="159" x="391.5" y="181.7285">&#31508;&#35760;&#35780;&#20215;(note_comment)</text><line style="stroke:#181818;stroke-width:0.5;" x1="363.5" x2="552.5" y1="192" y2="192"/><ellipse cx="373.5" cy="206.3047" fill="none" rx="3" ry="3" style="stroke:#038048;stroke-width:1.0;"/><text fill="#000000" font-family="sans-serif" font-size="14" lengthAdjust="spacing" textLength="82" x="382.5" y="210.5332">id : INT &#171;PK&#187;</text><line style="stroke:#181818;stroke-width:1.0;" x1="363.5" x2="552.5" y1="217.6094" y2="217.6094"/><text fill="#000000" font-family="sans-serif" font-size="14" lengthAdjust="spacing" textLength="155" x="368.5" y="236.1426">note_id : INT &#171;FK&#187; &#171;U1&#187;</text><text fill="#000000" font-family="sans-serif" font-size="14" lengthAdjust="spacing" textLength="138" x="368.5" y="253.752">teacher_id : INT &#171;FK&#187;</text><text fill="#000000" font-family="sans-serif" font-size="14" lengthAdjust="spacing" textLength="68" x="368.5" y="271.3613">score : INT</text></g><!--class interaction--><g id="elem_interaction"><rect codeLine="35" fill="#F1F1F1" height="118.4375" id="interaction" rx="2.5" ry="2.5" style="stroke:#181818;stroke-width:0.5;" width="200" x="358" y="313"/><ellipse cx="373" cy="329" fill="#ADD1B2" rx="11" ry="11" style="stroke:#181818;stroke-width:1.0;"/><path d="M371.8594,329.7969 L371.8594,332.2969 L376.1875,332.2969 L376.1875,331.375 Q376.1875,330.7656 376.4219,330.5 Q376.6719,330.2344 377.0469,330.2344 Q377.4219,330.2344 377.6563,330.5 Q377.8906,330.7656 377.8906,331.375 L377.8906,334 L369.8906,334 Q369.2656,334 369,333.7656 Q368.75,333.5313 368.75,333.1406 Q368.75,332.7656 369.0156,332.5313 Q369.2813,332.2969 369.8906,332.2969 L370.1563,332.2969 L370.1563,325.6406 L369.8906,325.6406 Q369.2656,325.6406 369,325.4063 Q368.75,325.1719 368.75,324.7813 Q368.75,324.4063 369,324.1719 Q369.2656,323.9375 369.8906,323.9375 L377.5156,323.9375 L377.5156,326.5313 Q377.5156,327.1406 377.2813,327.4063 Q377.0625,327.6563 376.6719,327.6563 Q376.2969,327.6563 376.0625,327.4063 Q375.8281,327.1406 375.8281,326.5313 L375.8281,325.6406 L371.8594,325.6406 L371.8594,328.0938 L373.3438,328.0938 Q373.3438,327.4375 373.4688,327.25 Q373.7344,326.8438 374.2031,326.8438 Q374.5781,326.8438 374.8125,327.1094 Q375.0469,327.3594 375.0469,327.9688 L375.0469,329.9375 Q375.0469,330.4844 374.9219,330.6719 Q374.6563,331.0625 374.2031,331.0625 Q373.7344,331.0625 373.4688,330.6563 Q373.3438,330.4688 373.3438,329.7969 L371.8594,329.7969 Z " fill="#000000"/><text fill="#000000" font-family="sans-serif" font-size="14" lengthAdjust="spacing" textLength="168" x="387" y="334.7285">&#31508;&#35760;&#20114;&#21160;(note_interaction)</text><line style="stroke:#181818;stroke-width:0.5;" x1="359" x2="557" y1="345" y2="345"/><ellipse cx="369" cy="359.3047" fill="none" rx="3" ry="3" style="stroke:#038048;stroke-width:1.0;"/><text fill="#000000" font-family="sans-serif" font-size="14" lengthAdjust="spacing" textLength="82" x="378" y="363.5332">id : INT &#171;PK&#187;</text><line style="stroke:#181818;stroke-width:1.0;" x1="359" x2="557" y1="370.6094" y2="370.6094"/><text fill="#000000" font-family="sans-serif" font-size="14" lengthAdjust="spacing" textLength="118" x="364" y="389.1426">note_id : INT &#171;FK&#187;</text><text fill="#000000" font-family="sans-serif" font-size="14" lengthAdjust="spacing" textLength="118" x="364" y="406.752">user_id : INT &#171;FK&#187;</text><text fill="#000000" font-family="sans-serif" font-size="14" lengthAdjust="spacing" textLength="60" x="364" y="424.3613">type : INT</text></g><!--class version--><g id="elem_version"><rect codeLine="43" fill="#F1F1F1" height="118.4375" id="version" rx="2.5" ry="2.5" style="stroke:#181818;stroke-width:0.5;" width="180" x="368" y="466"/><ellipse cx="383" cy="482" fill="#ADD1B2" rx="11" ry="11" style="stroke:#181818;stroke-width:1.0;"/><path d="M381.8594,482.7969 L381.8594,485.2969 L386.1875,485.2969 L386.1875,484.375 Q386.1875,483.7656 386.4219,483.5 Q386.6719,483.2344 387.0469,483.2344 Q387.4219,483.2344 387.6563,483.5 Q387.8906,483.7656 387.8906,484.375 L387.8906,487 L379.8906,487 Q379.2656,487 379,486.7656 Q378.75,486.5313 378.75,486.1406 Q378.75,485.7656 379.0156,485.5313 Q379.2813,485.2969 379.8906,485.2969 L380.1563,485.2969 L380.1563,478.6406 L379.8906,478.6406 Q379.2656,478.6406 379,478.4063 Q378.75,478.1719 378.75,477.7813 Q378.75,477.4063 379,477.1719 Q379.2656,476.9375 379.8906,476.9375 L387.5156,476.9375 L387.5156,479.5313 Q387.5156,480.1406 387.2813,480.4063 Q387.0625,480.6563 386.6719,480.6563 Q386.2969,480.6563 386.0625,480.4063 Q385.8281,480.1406 385.8281,479.5313 L385.8281,478.6406 L381.8594,478.6406 L381.8594,481.0938 L383.3438,481.0938 Q383.3438,480.4375 383.4688,480.25 Q383.7344,479.8438 384.2031,479.8438 Q384.5781,479.8438 384.8125,480.1094 Q385.0469,480.3594 385.0469,480.9688 L385.0469,482.9375 Q385.0469,483.4844 384.9219,483.6719 Q384.6563,484.0625 384.2031,484.0625 Q383.7344,484.0625 383.4688,483.6563 Q383.3438,483.4688 383.3438,482.7969 L381.8594,482.7969 Z " fill="#000000"/><text fill="#000000" font-family="sans-serif" font-size="14" lengthAdjust="spacing" textLength="148" x="397" y="487.7285">&#31508;&#35760;&#29256;&#26412;(note_version)</text><line style="stroke:#181818;stroke-width:0.5;" x1="369" x2="547" y1="498" y2="498"/><ellipse cx="379" cy="512.3047" fill="none" rx="3" ry="3" style="stroke:#038048;stroke-width:1.0;"/><text fill="#000000" font-family="sans-serif" font-size="14" lengthAdjust="spacing" textLength="82" x="388" y="516.5332">id : INT &#171;PK&#187;</text><line style="stroke:#181818;stroke-width:1.0;" x1="369" x2="547" y1="523.6094" y2="523.6094"/><text fill="#000000" font-family="sans-serif" font-size="14" lengthAdjust="spacing" textLength="118" x="374" y="542.1426">note_id : INT &#171;FK&#187;</text><text fill="#000000" font-family="sans-serif" font-size="14" lengthAdjust="spacing" textLength="79" x="374" y="559.752">version : INT</text><text fill="#000000" font-family="sans-serif" font-size="14" lengthAdjust="spacing" textLength="134" x="374" y="577.3613">title : VARCHAR(200)</text></g><!--class attachment--><g id="elem_attachment"><rect codeLine="51" fill="#F1F1F1" height="100.8281" id="attachment" rx="2.5" ry="2.5" style="stroke:#181818;stroke-width:0.5;" width="166" x="375" y="619.5"/><ellipse cx="397.2" cy="635.5" fill="#ADD1B2" rx="11" ry="11" style="stroke:#181818;stroke-width:1.0;"/><path d="M396.0594,636.2969 L396.0594,638.7969 L400.3875,638.7969 L400.3875,637.875 Q400.3875,637.2656 400.6219,637 Q400.8719,636.7344 401.2469,636.7344 Q401.6219,636.7344 401.8563,637 Q402.0906,637.2656 402.0906,637.875 L402.0906,640.5 L394.0906,640.5 Q393.4656,640.5 393.2,640.2656 Q392.95,640.0313 392.95,639.6406 Q392.95,639.2656 393.2156,639.0313 Q393.4813,638.7969 394.0906,638.7969 L394.3563,638.7969 L394.3563,632.1406 L394.0906,632.1406 Q393.4656,632.1406 393.2,631.9063 Q392.95,631.6719 392.95,631.2813 Q392.95,630.9063 393.2,630.6719 Q393.4656,630.4375 394.0906,630.4375 L401.7156,630.4375 L401.7156,633.0313 Q401.7156,633.6406 401.4813,633.9063 Q401.2625,634.1563 400.8719,634.1563 Q400.4969,634.1563 400.2625,633.9063 Q400.0281,633.6406 400.0281,633.0313 L400.0281,632.1406 L396.0594,632.1406 L396.0594,634.5938 L397.5438,634.5938 Q397.5438,633.9375 397.6688,633.75 Q397.9344,633.3438 398.4031,633.3438 Q398.7781,633.3438 399.0125,633.6094 Q399.2469,633.8594 399.2469,634.4688 L399.2469,636.4375 Q399.2469,636.9844 399.1219,637.1719 Q398.8563,637.5625 398.4031,637.5625 Q397.9344,637.5625 397.6688,637.1563 Q397.5438,636.9688 397.5438,636.2969 L396.0594,636.2969 Z " fill="#000000"/><text fill="#000000" font-family="sans-serif" font-size="14" lengthAdjust="spacing" textLength="118" x="412.8" y="641.2285">&#31508;&#35760;&#38468;&#20214;(note_att)</text><line style="stroke:#181818;stroke-width:0.5;" x1="376" x2="540" y1="651.5" y2="651.5"/><ellipse cx="386" cy="665.8047" fill="none" rx="3" ry="3" style="stroke:#038048;stroke-width:1.0;"/><text fill="#000000" font-family="sans-serif" font-size="14" lengthAdjust="spacing" textLength="82" x="395" y="670.0332">id : INT &#171;PK&#187;</text><line style="stroke:#181818;stroke-width:1.0;" x1="376" x2="540" y1="677.1094" y2="677.1094"/><text fill="#000000" font-family="sans-serif" font-size="14" lengthAdjust="spacing" textLength="118" x="381" y="695.6426">note_id : INT &#171;FK&#187;</text><text fill="#000000" font-family="sans-serif" font-size="14" lengthAdjust="spacing" textLength="154" x="381" y="713.252">file_url : VARCHAR(255)</text></g><g id="elem_GMN17"><path d="M624,197.5 L624,215 L553.52,219 L624,223 L624,240.2031 A0,0 0 0 0 624,240.2031 L859,240.2031 A0,0 0 0 0 859,240.2031 L859,207.5 L849,197.5 L624,197.5 A0,0 0 0 0 624,197.5 " fill="#FEFFDD" style="stroke:#181818;stroke-width:0.5;"/><path d="M849,197.5 L849,207.5 L859,207.5 L849,197.5 " fill="#FEFFDD" style="stroke:#181818;stroke-width:0.5;"/><text fill="#000000" font-family="sans-serif" font-size="13" lengthAdjust="spacing" textLength="214" x="630" y="215.9951">note_comment.note_id &#26377;&#21807;&#19968;&#32422;&#26463;&#65292;</text><text fill="#000000" font-family="sans-serif" font-size="13" lengthAdjust="spacing" textLength="208" x="630" y="232.3467">&#30830;&#20445;&#19968;&#31687;&#31508;&#35760;&#20165;&#33719;&#24471;&#19968;&#26465;&#25945;&#24072;&#35780;&#20215;&#12290;</text></g><!--link note to comment--><g id="link_note_comment"><path codeLine="59" d="M153.05,319.24 C212.55,299.62 297.45,271.62 362.41,250.19 " fill="none" id="note-comment" style="stroke:#181818;stroke-width:1.0;"/><text fill="#000000" font-family="sans-serif" font-size="13" lengthAdjust="spacing" textLength="143" x="184" y="259.4951">&#33719;&#24471;&#35780;&#20215; (1:1 via unique)</text><text fill="#000000" font-family="sans-serif" font-size="13" lengthAdjust="spacing" textLength="7" x="160.9442" y="331.1369">1</text><text fill="#000000" font-family="sans-serif" font-size="13" lengthAdjust="spacing" textLength="22" x="332.5823" y="266.56">0..n</text></g><!--link note to interaction--><g id="link_note_interaction"><path codeLine="60" d="M153.05,348.56 C211.16,353.04 293.51,359.39 357.84,364.35 " fill="none" id="note-interaction" style="stroke:#181818;stroke-width:1.0;"/><text fill="#000000" font-family="sans-serif" font-size="13" lengthAdjust="spacing" textLength="52" x="229.5" y="348.4951">&#33719;&#24471;&#20114;&#21160;</text><text fill="#000000" font-family="sans-serif" font-size="13" lengthAdjust="spacing" textLength="7" x="160.9442" y="363.4805">1</text><text fill="#000000" font-family="sans-serif" font-size="13" lengthAdjust="spacing" textLength="22" x="328.0241" y="377.8667">0..n</text></g><!--link note to version--><g id="link_note_version"><path codeLine="61" d="M153.05,377.88 C214.25,407.5 302.34,450.14 367.95,481.9 " fill="none" id="note-version" style="stroke:#181818;stroke-width:1.0;"/><text fill="#000000" font-family="sans-serif" font-size="13" lengthAdjust="spacing" textLength="52" x="229.5" y="393.4951">&#21382;&#21490;&#29256;&#26412;</text><text fill="#000000" font-family="sans-serif" font-size="13" lengthAdjust="spacing" textLength="7" x="160.9442" y="395.8241">1</text><text fill="#000000" font-family="sans-serif" font-size="13" lengthAdjust="spacing" textLength="22" x="337.8976" y="492.5947">0..n</text></g><!--link note to attachment--><g id="link_note_attachment"><path codeLine="62" d="M116.96,393.77 C146.33,435.23 183,487 183,487 C183,487 299.95,565.11 381.04,619.27 " fill="none" id="note-attachment" style="stroke:#181818;stroke-width:1.0;"/><text fill="#000000" font-family="sans-serif" font-size="13" lengthAdjust="spacing" textLength="52" x="229.5" y="483.4951">&#25317;&#26377;&#38468;&#20214;</text><text fill="#000000" font-family="sans-serif" font-size="13" lengthAdjust="spacing" textLength="7" x="114.2471" y="414.8286">1</text><text fill="#000000" font-family="sans-serif" font-size="13" lengthAdjust="spacing" textLength="22" x="346.6706" y="608.543">0..n</text></g><!--link note to note_tag--><g id="link_note_note_tag"><path codeLine="64" d="M107.67,292.28 C137.89,234.8 183,149 183,149 C183,149 284.75,118.18 364.24,94.1 " fill="none" id="note-note_tag" style="stroke:#181818;stroke-width:1.0;"/><text fill="#000000" font-family="sans-serif" font-size="13" lengthAdjust="spacing" textLength="4" x="253.5" y="104.4951">&#160;</text><text fill="#000000" font-family="sans-serif" font-size="13" lengthAdjust="spacing" textLength="7" x="104.0689" y="281.5544">1</text><text fill="#000000" font-family="sans-serif" font-size="13" lengthAdjust="spacing" textLength="22" x="334.5467" y="110.2431">0..n</text></g><!--link note_tag to note--><g id="link_note_tag_note"><path codeLine="66" d="M354.2486,135.2974 C331.4086,150.7074 328,153 328,153 C328,153 183,237 183,237 C183,237 161.4271,259.4154 135.1571,286.7154 " fill="none" id="note_tag-note" style="stroke:#181818;stroke-width:1.0;"/><line style="stroke:#181818;stroke-width:1.0;" x1="362.5383" x2="365.8142" y1="129.7044" y2="120.2562"/><line style="stroke:#181818;stroke-width:1.0;" x1="362.5383" x2="372.5258" y1="129.7044" y2="130.2038"/><line style="stroke:#181818;stroke-width:1.0;" x1="362.5383" x2="369.17" y1="129.7044" y2="125.23"/><ellipse cx="357.5645" cy="133.0602" fill="none" rx="4" ry="4" style="stroke:#181818;stroke-width:1.0;"/><line style="stroke:#181818;stroke-width:1.0;" x1="135.2658" x2="129.5013" y1="292.3713" y2="286.8242"/><line style="stroke:#181818;stroke-width:1.0;" x1="137.346" x2="131.5814" y1="290.2095" y2="284.6625"/><line style="stroke:#181818;stroke-width:1.0;" x1="135.1571" x2="129.61" y1="286.7154" y2="292.48"/></g><!--link tag to note_tag--><g id="link_tag_note_tag"><path codeLine="65" d="M647.3,81.27 C618.41,86 594,90 594,90 C594,90 588,90 588,90 C588,90 572.23,87.07 551.72,83.25 " fill="none" id="tag-note_tag" style="stroke:#181818;stroke-width:1.0;"/><text fill="#000000" font-family="sans-serif" font-size="13" lengthAdjust="spacing" textLength="4" x="589" y="86.4951">&#160;</text><text fill="#000000" font-family="sans-serif" font-size="13" lengthAdjust="spacing" textLength="7" x="632.5145" y="96.6403">1</text><text fill="#000000" font-family="sans-serif" font-size="13" lengthAdjust="spacing" textLength="22" x="559.4104" y="98.5963">0..n</text></g><!--link note_tag to tag--><g id="link_note_tag_tag"><path codeLine="67" d="M569.56,66 C600.33,66 608.59,66 639.4,66 " fill="none" id="note_tag-tag" style="stroke:#181818;stroke-width:1.0;"/><line style="stroke:#181818;stroke-width:1.0;" x1="559.56" x2="551.56" y1="66" y2="72"/><line style="stroke:#181818;stroke-width:1.0;" x1="559.56" x2="551.56" y1="66" y2="60"/><line style="stroke:#181818;stroke-width:1.0;" x1="559.56" x2="551.56" y1="66" y2="66"/><ellipse cx="565.56" cy="66" fill="none" rx="4" ry="4" style="stroke:#181818;stroke-width:1.0;"/><line style="stroke:#181818;stroke-width:1.0;" x1="643.4" x2="643.4" y1="62" y2="70"/><line style="stroke:#181818;stroke-width:1.0;" x1="640.4" x2="640.4" y1="62" y2="70"/><line style="stroke:#181818;stroke-width:1.0;" x1="639.4" x2="647.4" y1="66" y2="66"/></g><!--SRC=[dLJVQzDG57xFNt78orAqfHNwKiPW2A888aDzBQ6zxIwcIKrk1yKDwe-vTSe4wHWRAxCFoeJPgWDNrpd_67EJ-hH_mPFSD8qsczYNS7vyvtxVFUVSp81pqE7jRRlVF3_TTGzRm-udf_c1VzxY6_l3PzybZPGOC0DCMbvaKAGcAJ1gw9BraEfLrLGhe56Ti7gLGDNGwfuZIKHdbDL15kSfki58GWRL0i-2nnB05Q15oC6jE_TWTlRkxRavZ2MJ-C52ZM3cmVp2zPlp2ygrT3g1uPf5p7oav8PNiZ9cSjwkkH_F5AQM1H4Qb_FeQYLAaqqd470_umCAAYDbmwp_cO_IYOib1IjVFHe-QVctp8S2Hju_L7Yelwy5dlgOgD07Ib1qDO3521lsdjk3Om4i69KAPeMgmFb_KUFcCA8M5cE60M0L39E8uAGa- -GDtpW8jEkCcAg_Hq9M931LlsAt0wLwMtc17hUvxkmT2ZrBnBH2BO4pbOvHhU2yO9adfFpQmMbz5L9K5amA3UppTCF2S8bg95ypjIXvDkkJpm0kh7iquDrT-rjJyf-ad97nE93JgPGkXrkI0tcuUSpFjiK-WPB9PM29gb3JwQCQFkcuukWimmF4z6Fnuvx9VFC5V_r5J2OM6saAmfsNxvozfkYUBCNXmqU8Q5doZCloeRTY99FBotvs8eXcG2N-Y4PfrAxHC08tDPeCQkIjdjrlk2VldVR- -UahHBgThlsZxGLxQy436Qm6lUetd7R7sThX_NNH-9-DfxWoHV_utm00]--></g></svg>