<?xml version="1.0" encoding="us-ascii" standalone="no"?><svg xmlns="http://www.w3.org/2000/svg" xmlns:xlink="http://www.w3.org/1999/xlink" contentStyleType="text/css" height="867px" preserveAspectRatio="none" style="width:1303px;height:867px;background:#FFFFFF;" version="1.1" viewBox="0 0 1303 867" width="1303px" zoomAndPan="magnify"><defs/><g><!--class user--><g id="elem_user"><rect codeLine="6" fill="#F1F1F1" height="153.6563" id="user" rx="2.5" ry="2.5" style="stroke:#181818;stroke-width:0.5;" width="239" x="7" y="420"/><ellipse cx="89.25" cy="436" fill="#ADD1B2" rx="11" ry="11" style="stroke:#181818;stroke-width:1.0;"/><path d="M88.1094,436.7969 L88.1094,439.2969 L92.4375,439.2969 L92.4375,438.375 Q92.4375,437.7656 92.6719,437.5 Q92.9219,437.2344 93.2969,437.2344 Q93.6719,437.2344 93.9063,437.5 Q94.1406,437.7656 94.1406,438.375 L94.1406,441 L86.1406,441 Q85.5156,441 85.25,440.7656 Q85,440.5313 85,440.1406 Q85,439.7656 85.2656,439.5313 Q85.5313,439.2969 86.1406,439.2969 L86.4063,439.2969 L86.4063,432.6406 L86.1406,432.6406 Q85.5156,432.6406 85.25,432.4063 Q85,432.1719 85,431.7813 Q85,431.4063 85.25,431.1719 Q85.5156,430.9375 86.1406,430.9375 L93.7656,430.9375 L93.7656,433.5313 Q93.7656,434.1406 93.5313,434.4063 Q93.3125,434.6563 92.9219,434.6563 Q92.5469,434.6563 92.3125,434.4063 Q92.0781,434.1406 92.0781,433.5313 L92.0781,432.6406 L88.1094,432.6406 L88.1094,435.0938 L89.5938,435.0938 Q89.5938,434.4375 89.7188,434.25 Q89.9844,433.8438 90.4531,433.8438 Q90.8281,433.8438 91.0625,434.1094 Q91.2969,434.3594 91.2969,434.9688 L91.2969,436.9375 Q91.2969,437.4844 91.1719,437.6719 Q90.9063,438.0625 90.4531,438.0625 Q89.9844,438.0625 89.7188,437.6563 Q89.5938,437.4688 89.5938,436.7969 L88.1094,436.7969 Z " fill="#000000"/><text fill="#000000" font-family="sans-serif" font-size="14" lengthAdjust="spacing" textLength="66" x="109.75" y="441.7285">&#29992;&#25143;(user)</text><line style="stroke:#181818;stroke-width:0.5;" x1="8" x2="245" y1="452" y2="452"/><ellipse cx="18" cy="466.3047" fill="none" rx="3" ry="3" style="stroke:#038048;stroke-width:1.0;"/><text fill="#000000" font-family="sans-serif" font-size="14" lengthAdjust="spacing" textLength="82" x="27" y="470.5332">id : INT &#171;PK&#187;</text><line style="stroke:#181818;stroke-width:1.0;" x1="8" x2="245" y1="477.6094" y2="477.6094"/><text fill="#000000" font-family="sans-serif" font-size="14" lengthAdjust="spacing" textLength="175" x="13" y="496.1426">username : VARCHAR(100)</text><text fill="#000000" font-family="sans-serif" font-size="14" lengthAdjust="spacing" textLength="227" x="13" y="513.752">user_account : VARCHAR(20) &#171;U1&#187;</text><text fill="#000000" font-family="sans-serif" font-size="14" lengthAdjust="spacing" textLength="179" x="13" y="531.3613">real_name : VARCHAR(100)</text><text fill="#000000" font-family="sans-serif" font-size="14" lengthAdjust="spacing" textLength="57" x="13" y="548.9707">role : INT</text><text fill="#000000" font-family="sans-serif" font-size="14" lengthAdjust="spacing" textLength="82" x="13" y="566.5801">... (&#20854;&#20182;&#23383;&#27573;)</text></g><!--class class--><g id="elem_class"><rect codeLine="16" fill="#F1F1F1" height="136.0469" id="class" rx="2.5" ry="2.5" style="stroke:#181818;stroke-width:0.5;" width="199" x="306" y="368"/><ellipse cx="366.25" cy="384" fill="#ADD1B2" rx="11" ry="11" style="stroke:#181818;stroke-width:1.0;"/><path d="M365.1094,384.7969 L365.1094,387.2969 L369.4375,387.2969 L369.4375,386.375 Q369.4375,385.7656 369.6719,385.5 Q369.9219,385.2344 370.2969,385.2344 Q370.6719,385.2344 370.9063,385.5 Q371.1406,385.7656 371.1406,386.375 L371.1406,389 L363.1406,389 Q362.5156,389 362.25,388.7656 Q362,388.5313 362,388.1406 Q362,387.7656 362.2656,387.5313 Q362.5313,387.2969 363.1406,387.2969 L363.4063,387.2969 L363.4063,380.6406 L363.1406,380.6406 Q362.5156,380.6406 362.25,380.4063 Q362,380.1719 362,379.7813 Q362,379.4063 362.25,379.1719 Q362.5156,378.9375 363.1406,378.9375 L370.7656,378.9375 L370.7656,381.5313 Q370.7656,382.1406 370.5313,382.4063 Q370.3125,382.6563 369.9219,382.6563 Q369.5469,382.6563 369.3125,382.4063 Q369.0781,382.1406 369.0781,381.5313 L369.0781,380.6406 L365.1094,380.6406 L365.1094,383.0938 L366.5938,383.0938 Q366.5938,382.4375 366.7188,382.25 Q366.9844,381.8438 367.4531,381.8438 Q367.8281,381.8438 368.0625,382.1094 Q368.2969,382.3594 368.2969,382.9688 L368.2969,384.9375 Q368.2969,385.4844 368.1719,385.6719 Q367.9063,386.0625 367.4531,386.0625 Q366.9844,386.0625 366.7188,385.6563 Q366.5938,385.4688 366.5938,384.7969 L365.1094,384.7969 Z " fill="#000000"/><text fill="#000000" font-family="sans-serif" font-size="14" lengthAdjust="spacing" textLength="70" x="386.75" y="389.7285">&#35838;&#31243;(class)</text><line style="stroke:#181818;stroke-width:0.5;" x1="307" x2="504" y1="400" y2="400"/><ellipse cx="317" cy="414.3047" fill="none" rx="3" ry="3" style="stroke:#038048;stroke-width:1.0;"/><text fill="#000000" font-family="sans-serif" font-size="14" lengthAdjust="spacing" textLength="82" x="326" y="418.5332">id : INT &#171;PK&#187;</text><line style="stroke:#181818;stroke-width:1.0;" x1="307" x2="504" y1="425.6094" y2="425.6094"/><text fill="#000000" font-family="sans-serif" font-size="14" lengthAdjust="spacing" textLength="187" x="312" y="444.1426">class_name : VARCHAR(200)</text><text fill="#000000" font-family="sans-serif" font-size="14" lengthAdjust="spacing" textLength="138" x="312" y="461.752">teacher_id : INT &#171;FK&#187;</text><text fill="#000000" font-family="sans-serif" font-size="14" lengthAdjust="spacing" textLength="71" x="312" y="479.3613">status : INT</text><text fill="#000000" font-family="sans-serif" font-size="14" lengthAdjust="spacing" textLength="82" x="312" y="496.9707">... (&#20854;&#20182;&#23383;&#27573;)</text></g><!--class task--><g id="elem_task"><rect codeLine="25" fill="#F1F1F1" height="136.0469" id="task" rx="2.5" ry="2.5" style="stroke:#181818;stroke-width:0.5;" width="147" x="579.5" y="327"/><ellipse cx="617.45" cy="343" fill="#ADD1B2" rx="11" ry="11" style="stroke:#181818;stroke-width:1.0;"/><path d="M616.3094,343.7969 L616.3094,346.2969 L620.6375,346.2969 L620.6375,345.375 Q620.6375,344.7656 620.8719,344.5 Q621.1219,344.2344 621.4969,344.2344 Q621.8719,344.2344 622.1063,344.5 Q622.3406,344.7656 622.3406,345.375 L622.3406,348 L614.3406,348 Q613.7156,348 613.45,347.7656 Q613.2,347.5313 613.2,347.1406 Q613.2,346.7656 613.4656,346.5313 Q613.7313,346.2969 614.3406,346.2969 L614.6063,346.2969 L614.6063,339.6406 L614.3406,339.6406 Q613.7156,339.6406 613.45,339.4063 Q613.2,339.1719 613.2,338.7813 Q613.2,338.4063 613.45,338.1719 Q613.7156,337.9375 614.3406,337.9375 L621.9656,337.9375 L621.9656,340.5313 Q621.9656,341.1406 621.7313,341.4063 Q621.5125,341.6563 621.1219,341.6563 Q620.7469,341.6563 620.5125,341.4063 Q620.2781,341.1406 620.2781,340.5313 L620.2781,339.6406 L616.3094,339.6406 L616.3094,342.0938 L617.7938,342.0938 Q617.7938,341.4375 617.9188,341.25 Q618.1844,340.8438 618.6531,340.8438 Q619.0281,340.8438 619.2625,341.1094 Q619.4969,341.3594 619.4969,341.9688 L619.4969,343.9375 Q619.4969,344.4844 619.3719,344.6719 Q619.1063,345.0625 618.6531,345.0625 Q618.1844,345.0625 617.9188,344.6563 Q617.7938,344.4688 617.7938,343.7969 L616.3094,343.7969 Z " fill="#000000"/><text fill="#000000" font-family="sans-serif" font-size="14" lengthAdjust="spacing" textLength="64" x="636.55" y="348.7285">&#20316;&#19994;(task)</text><line style="stroke:#181818;stroke-width:0.5;" x1="580.5" x2="725.5" y1="359" y2="359"/><ellipse cx="590.5" cy="373.3047" fill="none" rx="3" ry="3" style="stroke:#038048;stroke-width:1.0;"/><text fill="#000000" font-family="sans-serif" font-size="14" lengthAdjust="spacing" textLength="82" x="599.5" y="377.5332">id : INT &#171;PK&#187;</text><line style="stroke:#181818;stroke-width:1.0;" x1="580.5" x2="725.5" y1="384.6094" y2="384.6094"/><text fill="#000000" font-family="sans-serif" font-size="14" lengthAdjust="spacing" textLength="122" x="585.5" y="403.1426">class_id : INT &#171;FK&#187;</text><text fill="#000000" font-family="sans-serif" font-size="14" lengthAdjust="spacing" textLength="134" x="585.5" y="420.752">title : VARCHAR(200)</text><text fill="#000000" font-family="sans-serif" font-size="14" lengthAdjust="spacing" textLength="135" x="585.5" y="438.3613">deadline : DATETIME</text><text fill="#000000" font-family="sans-serif" font-size="14" lengthAdjust="spacing" textLength="82" x="585.5" y="455.9707">... (&#20854;&#20182;&#23383;&#27573;)</text></g><!--class note--><g id="elem_note"><rect codeLine="34" fill="#F1F1F1" height="153.6563" id="note" rx="2.5" ry="2.5" style="stroke:#181818;stroke-width:0.5;" width="146" x="845.5" y="176"/><ellipse cx="882.1" cy="192" fill="#ADD1B2" rx="11" ry="11" style="stroke:#181818;stroke-width:1.0;"/><path d="M880.9594,192.7969 L880.9594,195.2969 L885.2875,195.2969 L885.2875,194.375 Q885.2875,193.7656 885.5219,193.5 Q885.7719,193.2344 886.1469,193.2344 Q886.5219,193.2344 886.7563,193.5 Q886.9906,193.7656 886.9906,194.375 L886.9906,197 L878.9906,197 Q878.3656,197 878.1,196.7656 Q877.85,196.5313 877.85,196.1406 Q877.85,195.7656 878.1156,195.5313 Q878.3813,195.2969 878.9906,195.2969 L879.2563,195.2969 L879.2563,188.6406 L878.9906,188.6406 Q878.3656,188.6406 878.1,188.4063 Q877.85,188.1719 877.85,187.7813 Q877.85,187.4063 878.1,187.1719 Q878.3656,186.9375 878.9906,186.9375 L886.6156,186.9375 L886.6156,189.5313 Q886.6156,190.1406 886.3813,190.4063 Q886.1625,190.6563 885.7719,190.6563 Q885.3969,190.6563 885.1625,190.4063 Q884.9281,190.1406 884.9281,189.5313 L884.9281,188.6406 L880.9594,188.6406 L880.9594,191.0938 L882.4438,191.0938 Q882.4438,190.4375 882.5688,190.25 Q882.8344,189.8438 883.3031,189.8438 Q883.6781,189.8438 883.9125,190.1094 Q884.1469,190.3594 884.1469,190.9688 L884.1469,192.9375 Q884.1469,193.4844 884.0219,193.6719 Q883.7563,194.0625 883.3031,194.0625 Q882.8344,194.0625 882.5688,193.6563 Q882.4438,193.4688 882.4438,192.7969 L880.9594,192.7969 Z " fill="#000000"/><text fill="#000000" font-family="sans-serif" font-size="14" lengthAdjust="spacing" textLength="66" x="900.9" y="197.7285">&#31508;&#35760;(note)</text><line style="stroke:#181818;stroke-width:0.5;" x1="846.5" x2="990.5" y1="208" y2="208"/><ellipse cx="856.5" cy="222.3047" fill="none" rx="3" ry="3" style="stroke:#038048;stroke-width:1.0;"/><text fill="#000000" font-family="sans-serif" font-size="14" lengthAdjust="spacing" textLength="82" x="865.5" y="226.5332">id : INT &#171;PK&#187;</text><line style="stroke:#181818;stroke-width:1.0;" x1="846.5" x2="990.5" y1="233.6094" y2="233.6094"/><text fill="#000000" font-family="sans-serif" font-size="14" lengthAdjust="spacing" textLength="134" x="851.5" y="252.1426">title : VARCHAR(200)</text><text fill="#000000" font-family="sans-serif" font-size="14" lengthAdjust="spacing" textLength="118" x="851.5" y="269.752">user_id : INT &#171;FK&#187;</text><text fill="#000000" font-family="sans-serif" font-size="14" lengthAdjust="spacing" textLength="116" x="851.5" y="287.3613">task_id : INT &#171;FK&#187;</text><text fill="#000000" font-family="sans-serif" font-size="14" lengthAdjust="spacing" textLength="99" x="851.5" y="304.9707">vision : TINYINT</text><text fill="#000000" font-family="sans-serif" font-size="14" lengthAdjust="spacing" textLength="82" x="851.5" y="322.5801">... (&#20854;&#20182;&#23383;&#27573;)</text></g><!--class tag--><g id="elem_tag"><rect codeLine="44" fill="#F1F1F1" height="118.4375" id="tag" rx="2.5" ry="2.5" style="stroke:#181818;stroke-width:0.5;" width="188" x="824.5" y="518"/><ellipse cx="885.25" cy="534" fill="#ADD1B2" rx="11" ry="11" style="stroke:#181818;stroke-width:1.0;"/><path d="M884.1094,534.7969 L884.1094,537.2969 L888.4375,537.2969 L888.4375,536.375 Q888.4375,535.7656 888.6719,535.5 Q888.9219,535.2344 889.2969,535.2344 Q889.6719,535.2344 889.9063,535.5 Q890.1406,535.7656 890.1406,536.375 L890.1406,539 L882.1406,539 Q881.5156,539 881.25,538.7656 Q881,538.5313 881,538.1406 Q881,537.7656 881.2656,537.5313 Q881.5313,537.2969 882.1406,537.2969 L882.4063,537.2969 L882.4063,530.6406 L882.1406,530.6406 Q881.5156,530.6406 881.25,530.4063 Q881,530.1719 881,529.7813 Q881,529.4063 881.25,529.1719 Q881.5156,528.9375 882.1406,528.9375 L889.7656,528.9375 L889.7656,531.5313 Q889.7656,532.1406 889.5313,532.4063 Q889.3125,532.6563 888.9219,532.6563 Q888.5469,532.6563 888.3125,532.4063 Q888.0781,532.1406 888.0781,531.5313 L888.0781,530.6406 L884.1094,530.6406 L884.1094,533.0938 L885.5938,533.0938 Q885.5938,532.4375 885.7188,532.25 Q885.9844,531.8438 886.4531,531.8438 Q886.8281,531.8438 887.0625,532.1094 Q887.2969,532.3594 887.2969,532.9688 L887.2969,534.9375 Q887.2969,535.4844 887.1719,535.6719 Q886.9063,536.0625 886.4531,536.0625 Q885.9844,536.0625 885.7188,535.6563 Q885.5938,535.4688 885.5938,534.7969 L884.1094,534.7969 Z " fill="#000000"/><text fill="#000000" font-family="sans-serif" font-size="14" lengthAdjust="spacing" textLength="58" x="905.75" y="539.7285">&#26631;&#31614;(tag)</text><line style="stroke:#181818;stroke-width:0.5;" x1="825.5" x2="1011.5" y1="550" y2="550"/><ellipse cx="835.5" cy="564.3047" fill="none" rx="3" ry="3" style="stroke:#038048;stroke-width:1.0;"/><text fill="#000000" font-family="sans-serif" font-size="14" lengthAdjust="spacing" textLength="82" x="844.5" y="568.5332">id : INT &#171;PK&#187;</text><line style="stroke:#181818;stroke-width:1.0;" x1="825.5" x2="1011.5" y1="575.6094" y2="575.6094"/><text fill="#000000" font-family="sans-serif" font-size="14" lengthAdjust="spacing" textLength="176" x="830.5" y="594.1426">name : VARCHAR(50) &#171;U1&#187;</text><text fill="#000000" font-family="sans-serif" font-size="14" lengthAdjust="spacing" textLength="159" x="830.5" y="611.752">category : VARCHAR(50)</text><text fill="#000000" font-family="sans-serif" font-size="14" lengthAdjust="spacing" textLength="82" x="830.5" y="629.3613">... (&#20854;&#20182;&#23383;&#27573;)</text></g><!--class note_att--><g id="elem_note_att"><rect codeLine="52" fill="#F1F1F1" height="118.4375" id="note_att" rx="2.5" ry="2.5" style="stroke:#181818;stroke-width:0.5;" width="166" x="1113" y="331"/><ellipse cx="1135.2" cy="347" fill="#ADD1B2" rx="11" ry="11" style="stroke:#181818;stroke-width:1.0;"/><path d="M1134.0594,347.7969 L1134.0594,350.2969 L1138.3875,350.2969 L1138.3875,349.375 Q1138.3875,348.7656 1138.6219,348.5 Q1138.8719,348.2344 1139.2469,348.2344 Q1139.6219,348.2344 1139.8563,348.5 Q1140.0906,348.7656 1140.0906,349.375 L1140.0906,352 L1132.0906,352 Q1131.4656,352 1131.2,351.7656 Q1130.95,351.5313 1130.95,351.1406 Q1130.95,350.7656 1131.2156,350.5313 Q1131.4813,350.2969 1132.0906,350.2969 L1132.3563,350.2969 L1132.3563,343.6406 L1132.0906,343.6406 Q1131.4656,343.6406 1131.2,343.4063 Q1130.95,343.1719 1130.95,342.7813 Q1130.95,342.4063 1131.2,342.1719 Q1131.4656,341.9375 1132.0906,341.9375 L1139.7156,341.9375 L1139.7156,344.5313 Q1139.7156,345.1406 1139.4813,345.4063 Q1139.2625,345.6563 1138.8719,345.6563 Q1138.4969,345.6563 1138.2625,345.4063 Q1138.0281,345.1406 1138.0281,344.5313 L1138.0281,343.6406 L1134.0594,343.6406 L1134.0594,346.0938 L1135.5438,346.0938 Q1135.5438,345.4375 1135.6688,345.25 Q1135.9344,344.8438 1136.4031,344.8438 Q1136.7781,344.8438 1137.0125,345.1094 Q1137.2469,345.3594 1137.2469,345.9688 L1137.2469,347.9375 Q1137.2469,348.4844 1137.1219,348.6719 Q1136.8563,349.0625 1136.4031,349.0625 Q1135.9344,349.0625 1135.6688,348.6563 Q1135.5438,348.4688 1135.5438,347.7969 L1134.0594,347.7969 Z " fill="#000000"/><text fill="#000000" font-family="sans-serif" font-size="14" lengthAdjust="spacing" textLength="118" x="1150.8" y="352.7285">&#31508;&#35760;&#38468;&#20214;(note_att)</text><line style="stroke:#181818;stroke-width:0.5;" x1="1114" x2="1278" y1="363" y2="363"/><ellipse cx="1124" cy="377.3047" fill="none" rx="3" ry="3" style="stroke:#038048;stroke-width:1.0;"/><text fill="#000000" font-family="sans-serif" font-size="14" lengthAdjust="spacing" textLength="82" x="1133" y="381.5332">id : INT &#171;PK&#187;</text><line style="stroke:#181818;stroke-width:1.0;" x1="1114" x2="1278" y1="388.6094" y2="388.6094"/><text fill="#000000" font-family="sans-serif" font-size="14" lengthAdjust="spacing" textLength="118" x="1119" y="407.1426">note_id : INT &#171;FK&#187;</text><text fill="#000000" font-family="sans-serif" font-size="14" lengthAdjust="spacing" textLength="154" x="1119" y="424.752">file_url : VARCHAR(255)</text><text fill="#000000" font-family="sans-serif" font-size="14" lengthAdjust="spacing" textLength="82" x="1119" y="442.3613">... (&#20854;&#20182;&#23383;&#27573;)</text></g><!--class note_comment--><g id="elem_note_comment"><rect codeLine="60" fill="#F1F1F1" height="136.0469" id="note_comment" rx="2.5" ry="2.5" style="stroke:#181818;stroke-width:0.5;" width="191" x="1100.5" y="7"/><ellipse cx="1115.5" cy="23" fill="#ADD1B2" rx="11" ry="11" style="stroke:#181818;stroke-width:1.0;"/><path d="M1114.3594,23.7969 L1114.3594,26.2969 L1118.6875,26.2969 L1118.6875,25.375 Q1118.6875,24.7656 1118.9219,24.5 Q1119.1719,24.2344 1119.5469,24.2344 Q1119.9219,24.2344 1120.1563,24.5 Q1120.3906,24.7656 1120.3906,25.375 L1120.3906,28 L1112.3906,28 Q1111.7656,28 1111.5,27.7656 Q1111.25,27.5313 1111.25,27.1406 Q1111.25,26.7656 1111.5156,26.5313 Q1111.7813,26.2969 1112.3906,26.2969 L1112.6563,26.2969 L1112.6563,19.6406 L1112.3906,19.6406 Q1111.7656,19.6406 1111.5,19.4063 Q1111.25,19.1719 1111.25,18.7813 Q1111.25,18.4063 1111.5,18.1719 Q1111.7656,17.9375 1112.3906,17.9375 L1120.0156,17.9375 L1120.0156,20.5313 Q1120.0156,21.1406 1119.7813,21.4063 Q1119.5625,21.6563 1119.1719,21.6563 Q1118.7969,21.6563 1118.5625,21.4063 Q1118.3281,21.1406 1118.3281,20.5313 L1118.3281,19.6406 L1114.3594,19.6406 L1114.3594,22.0938 L1115.8438,22.0938 Q1115.8438,21.4375 1115.9688,21.25 Q1116.2344,20.8438 1116.7031,20.8438 Q1117.0781,20.8438 1117.3125,21.1094 Q1117.5469,21.3594 1117.5469,21.9688 L1117.5469,23.9375 Q1117.5469,24.4844 1117.4219,24.6719 Q1117.1563,25.0625 1116.7031,25.0625 Q1116.2344,25.0625 1115.9688,24.6563 Q1115.8438,24.4688 1115.8438,23.7969 L1114.3594,23.7969 Z " fill="#000000"/><text fill="#000000" font-family="sans-serif" font-size="14" lengthAdjust="spacing" textLength="159" x="1129.5" y="28.7285">&#31508;&#35760;&#35780;&#20215;(note_comment)</text><line style="stroke:#181818;stroke-width:0.5;" x1="1101.5" x2="1290.5" y1="39" y2="39"/><ellipse cx="1111.5" cy="53.3047" fill="none" rx="3" ry="3" style="stroke:#038048;stroke-width:1.0;"/><text fill="#000000" font-family="sans-serif" font-size="14" lengthAdjust="spacing" textLength="82" x="1120.5" y="57.5332">id : INT &#171;PK&#187;</text><line style="stroke:#181818;stroke-width:1.0;" x1="1101.5" x2="1290.5" y1="64.6094" y2="64.6094"/><text fill="#000000" font-family="sans-serif" font-size="14" lengthAdjust="spacing" textLength="155" x="1106.5" y="83.1426">note_id : INT &#171;FK&#187; &#171;U1&#187;</text><text fill="#000000" font-family="sans-serif" font-size="14" lengthAdjust="spacing" textLength="138" x="1106.5" y="100.752">teacher_id : INT &#171;FK&#187;</text><text fill="#000000" font-family="sans-serif" font-size="14" lengthAdjust="spacing" textLength="68" x="1106.5" y="118.3613">score : INT</text><text fill="#000000" font-family="sans-serif" font-size="14" lengthAdjust="spacing" textLength="82" x="1106.5" y="135.9707">... (&#20854;&#20182;&#23383;&#27573;)</text></g><!--class note_interaction--><g id="elem_note_interaction"><rect codeLine="69" fill="#F1F1F1" height="136.0469" id="note_interaction" rx="2.5" ry="2.5" style="stroke:#181818;stroke-width:0.5;" width="200" x="1096" y="637"/><ellipse cx="1111" cy="653" fill="#ADD1B2" rx="11" ry="11" style="stroke:#181818;stroke-width:1.0;"/><path d="M1109.8594,653.7969 L1109.8594,656.2969 L1114.1875,656.2969 L1114.1875,655.375 Q1114.1875,654.7656 1114.4219,654.5 Q1114.6719,654.2344 1115.0469,654.2344 Q1115.4219,654.2344 1115.6563,654.5 Q1115.8906,654.7656 1115.8906,655.375 L1115.8906,658 L1107.8906,658 Q1107.2656,658 1107,657.7656 Q1106.75,657.5313 1106.75,657.1406 Q1106.75,656.7656 1107.0156,656.5313 Q1107.2813,656.2969 1107.8906,656.2969 L1108.1563,656.2969 L1108.1563,649.6406 L1107.8906,649.6406 Q1107.2656,649.6406 1107,649.4063 Q1106.75,649.1719 1106.75,648.7813 Q1106.75,648.4063 1107,648.1719 Q1107.2656,647.9375 1107.8906,647.9375 L1115.5156,647.9375 L1115.5156,650.5313 Q1115.5156,651.1406 1115.2813,651.4063 Q1115.0625,651.6563 1114.6719,651.6563 Q1114.2969,651.6563 1114.0625,651.4063 Q1113.8281,651.1406 1113.8281,650.5313 L1113.8281,649.6406 L1109.8594,649.6406 L1109.8594,652.0938 L1111.3438,652.0938 Q1111.3438,651.4375 1111.4688,651.25 Q1111.7344,650.8438 1112.2031,650.8438 Q1112.5781,650.8438 1112.8125,651.1094 Q1113.0469,651.3594 1113.0469,651.9688 L1113.0469,653.9375 Q1113.0469,654.4844 1112.9219,654.6719 Q1112.6563,655.0625 1112.2031,655.0625 Q1111.7344,655.0625 1111.4688,654.6563 Q1111.3438,654.4688 1111.3438,653.7969 L1109.8594,653.7969 Z " fill="#000000"/><text fill="#000000" font-family="sans-serif" font-size="14" lengthAdjust="spacing" textLength="168" x="1125" y="658.7285">&#31508;&#35760;&#20114;&#21160;(note_interaction)</text><line style="stroke:#181818;stroke-width:0.5;" x1="1097" x2="1295" y1="669" y2="669"/><ellipse cx="1107" cy="683.3047" fill="none" rx="3" ry="3" style="stroke:#038048;stroke-width:1.0;"/><text fill="#000000" font-family="sans-serif" font-size="14" lengthAdjust="spacing" textLength="82" x="1116" y="687.5332">id : INT &#171;PK&#187;</text><line style="stroke:#181818;stroke-width:1.0;" x1="1097" x2="1295" y1="694.6094" y2="694.6094"/><text fill="#000000" font-family="sans-serif" font-size="14" lengthAdjust="spacing" textLength="118" x="1102" y="713.1426">note_id : INT &#171;FK&#187;</text><text fill="#000000" font-family="sans-serif" font-size="14" lengthAdjust="spacing" textLength="118" x="1102" y="730.752">user_id : INT &#171;FK&#187;</text><text fill="#000000" font-family="sans-serif" font-size="14" lengthAdjust="spacing" textLength="60" x="1102" y="748.3613">type : INT</text><text fill="#000000" font-family="sans-serif" font-size="14" lengthAdjust="spacing" textLength="82" x="1102" y="765.9707">... (&#20854;&#20182;&#23383;&#27573;)</text></g><!--class note_version--><g id="elem_note_version"><rect codeLine="78" fill="#F1F1F1" height="118.4375" id="note_version" rx="2.5" ry="2.5" style="stroke:#181818;stroke-width:0.5;" width="180" x="1106" y="178"/><ellipse cx="1121" cy="194" fill="#ADD1B2" rx="11" ry="11" style="stroke:#181818;stroke-width:1.0;"/><path d="M1119.8594,194.7969 L1119.8594,197.2969 L1124.1875,197.2969 L1124.1875,196.375 Q1124.1875,195.7656 1124.4219,195.5 Q1124.6719,195.2344 1125.0469,195.2344 Q1125.4219,195.2344 1125.6563,195.5 Q1125.8906,195.7656 1125.8906,196.375 L1125.8906,199 L1117.8906,199 Q1117.2656,199 1117,198.7656 Q1116.75,198.5313 1116.75,198.1406 Q1116.75,197.7656 1117.0156,197.5313 Q1117.2813,197.2969 1117.8906,197.2969 L1118.1563,197.2969 L1118.1563,190.6406 L1117.8906,190.6406 Q1117.2656,190.6406 1117,190.4063 Q1116.75,190.1719 1116.75,189.7813 Q1116.75,189.4063 1117,189.1719 Q1117.2656,188.9375 1117.8906,188.9375 L1125.5156,188.9375 L1125.5156,191.5313 Q1125.5156,192.1406 1125.2813,192.4063 Q1125.0625,192.6563 1124.6719,192.6563 Q1124.2969,192.6563 1124.0625,192.4063 Q1123.8281,192.1406 1123.8281,191.5313 L1123.8281,190.6406 L1119.8594,190.6406 L1119.8594,193.0938 L1121.3438,193.0938 Q1121.3438,192.4375 1121.4688,192.25 Q1121.7344,191.8438 1122.2031,191.8438 Q1122.5781,191.8438 1122.8125,192.1094 Q1123.0469,192.3594 1123.0469,192.9688 L1123.0469,194.9375 Q1123.0469,195.4844 1122.9219,195.6719 Q1122.6563,196.0625 1122.2031,196.0625 Q1121.7344,196.0625 1121.4688,195.6563 Q1121.3438,195.4688 1121.3438,194.7969 L1119.8594,194.7969 Z " fill="#000000"/><text fill="#000000" font-family="sans-serif" font-size="14" lengthAdjust="spacing" textLength="148" x="1135" y="199.7285">&#31508;&#35760;&#29256;&#26412;(note_version)</text><line style="stroke:#181818;stroke-width:0.5;" x1="1107" x2="1285" y1="210" y2="210"/><ellipse cx="1117" cy="224.3047" fill="none" rx="3" ry="3" style="stroke:#038048;stroke-width:1.0;"/><text fill="#000000" font-family="sans-serif" font-size="14" lengthAdjust="spacing" textLength="82" x="1126" y="228.5332">id : INT &#171;PK&#187;</text><line style="stroke:#181818;stroke-width:1.0;" x1="1107" x2="1285" y1="235.6094" y2="235.6094"/><text fill="#000000" font-family="sans-serif" font-size="14" lengthAdjust="spacing" textLength="118" x="1112" y="254.1426">note_id : INT &#171;FK&#187;</text><text fill="#000000" font-family="sans-serif" font-size="14" lengthAdjust="spacing" textLength="79" x="1112" y="271.752">version : INT</text><text fill="#000000" font-family="sans-serif" font-size="14" lengthAdjust="spacing" textLength="82" x="1112" y="289.3613">... (&#20854;&#20182;&#23383;&#27573;)</text></g><!--class class_joined--><g id="elem_class_joined"><rect codeLine="86" fill="#F1F1F1" height="118.4375" id="class_joined" rx="2.5" ry="2.5" style="stroke:#181818;stroke-width:0.5;" width="176" x="565" y="498"/><ellipse cx="580" cy="514" fill="#ADD1B2" rx="11" ry="11" style="stroke:#181818;stroke-width:1.0;"/><path d="M578.8594,514.7969 L578.8594,517.2969 L583.1875,517.2969 L583.1875,516.375 Q583.1875,515.7656 583.4219,515.5 Q583.6719,515.2344 584.0469,515.2344 Q584.4219,515.2344 584.6563,515.5 Q584.8906,515.7656 584.8906,516.375 L584.8906,519 L576.8906,519 Q576.2656,519 576,518.7656 Q575.75,518.5313 575.75,518.1406 Q575.75,517.7656 576.0156,517.5313 Q576.2813,517.2969 576.8906,517.2969 L577.1563,517.2969 L577.1563,510.6406 L576.8906,510.6406 Q576.2656,510.6406 576,510.4063 Q575.75,510.1719 575.75,509.7813 Q575.75,509.4063 576,509.1719 Q576.2656,508.9375 576.8906,508.9375 L584.5156,508.9375 L584.5156,511.5313 Q584.5156,512.1406 584.2813,512.4063 Q584.0625,512.6563 583.6719,512.6563 Q583.2969,512.6563 583.0625,512.4063 Q582.8281,512.1406 582.8281,511.5313 L582.8281,510.6406 L578.8594,510.6406 L578.8594,513.0938 L580.3438,513.0938 Q580.3438,512.4375 580.4688,512.25 Q580.7344,511.8438 581.2031,511.8438 Q581.5781,511.8438 581.8125,512.1094 Q582.0469,512.3594 582.0469,512.9688 L582.0469,514.9375 Q582.0469,515.4844 581.9219,515.6719 Q581.6563,516.0625 581.2031,516.0625 Q580.7344,516.0625 580.4688,515.6563 Q580.3438,515.4688 580.3438,514.7969 L578.8594,514.7969 Z " fill="#000000"/><text fill="#000000" font-family="sans-serif" font-size="14" lengthAdjust="spacing" textLength="144" x="594" y="519.7285">&#35838;&#31243;&#21442;&#19982;(class_joined)</text><line style="stroke:#181818;stroke-width:0.5;" x1="566" x2="740" y1="530" y2="530"/><ellipse cx="576" cy="544.3047" fill="none" rx="3" ry="3" style="stroke:#038048;stroke-width:1.0;"/><text fill="#000000" font-family="sans-serif" font-size="14" lengthAdjust="spacing" textLength="82" x="585" y="548.5332">id : INT &#171;PK&#187;</text><line style="stroke:#181818;stroke-width:1.0;" x1="566" x2="740" y1="555.6094" y2="555.6094"/><text fill="#000000" font-family="sans-serif" font-size="14" lengthAdjust="spacing" textLength="122" x="571" y="574.1426">class_id : INT &#171;FK&#187;</text><text fill="#000000" font-family="sans-serif" font-size="14" lengthAdjust="spacing" textLength="137" x="571" y="591.752">student_id : INT &#171;FK&#187;</text><text fill="#000000" font-family="sans-serif" font-size="14" lengthAdjust="spacing" textLength="82" x="571" y="609.3613">... (&#20854;&#20182;&#23383;&#27573;)</text></g><!--class assignment_summary--><g id="elem_assignment_summary"><rect codeLine="94" fill="#F1F1F1" height="118.4375" id="assignment_summary" rx="2.5" ry="2.5" style="stroke:#181818;stroke-width:0.5;" width="235" x="801" y="365"/><ellipse cx="816" cy="381" fill="#ADD1B2" rx="11" ry="11" style="stroke:#181818;stroke-width:1.0;"/><path d="M814.8594,381.7969 L814.8594,384.2969 L819.1875,384.2969 L819.1875,383.375 Q819.1875,382.7656 819.4219,382.5 Q819.6719,382.2344 820.0469,382.2344 Q820.4219,382.2344 820.6563,382.5 Q820.8906,382.7656 820.8906,383.375 L820.8906,386 L812.8906,386 Q812.2656,386 812,385.7656 Q811.75,385.5313 811.75,385.1406 Q811.75,384.7656 812.0156,384.5313 Q812.2813,384.2969 812.8906,384.2969 L813.1563,384.2969 L813.1563,377.6406 L812.8906,377.6406 Q812.2656,377.6406 812,377.4063 Q811.75,377.1719 811.75,376.7813 Q811.75,376.4063 812,376.1719 Q812.2656,375.9375 812.8906,375.9375 L820.5156,375.9375 L820.5156,378.5313 Q820.5156,379.1406 820.2813,379.4063 Q820.0625,379.6563 819.6719,379.6563 Q819.2969,379.6563 819.0625,379.4063 Q818.8281,379.1406 818.8281,378.5313 L818.8281,377.6406 L814.8594,377.6406 L814.8594,380.0938 L816.3438,380.0938 Q816.3438,379.4375 816.4688,379.25 Q816.7344,378.8438 817.2031,378.8438 Q817.5781,378.8438 817.8125,379.1094 Q818.0469,379.3594 818.0469,379.9688 L818.0469,381.9375 Q818.0469,382.4844 817.9219,382.6719 Q817.6563,383.0625 817.2031,383.0625 Q816.7344,383.0625 816.4688,382.6563 Q816.3438,382.4688 816.3438,381.7969 L814.8594,381.7969 Z " fill="#000000"/><text fill="#000000" font-family="sans-serif" font-size="14" lengthAdjust="spacing" textLength="203" x="830" y="386.7285">&#20316;&#19994;&#24635;&#32467;(assignment_summary)</text><line style="stroke:#181818;stroke-width:0.5;" x1="802" x2="1035" y1="397" y2="397"/><ellipse cx="812" cy="411.3047" fill="none" rx="3" ry="3" style="stroke:#038048;stroke-width:1.0;"/><text fill="#000000" font-family="sans-serif" font-size="14" lengthAdjust="spacing" textLength="105" x="821" y="415.5332">id : BIGINT &#171;PK&#187;</text><line style="stroke:#181818;stroke-width:1.0;" x1="802" x2="1035" y1="422.6094" y2="422.6094"/><text fill="#000000" font-family="sans-serif" font-size="14" lengthAdjust="spacing" textLength="139" x="807" y="441.1426">task_id : BIGINT &#171;FK&#187;</text><text fill="#000000" font-family="sans-serif" font-size="14" lengthAdjust="spacing" textLength="143" x="807" y="458.752">summary : LONGTEXT</text><text fill="#000000" font-family="sans-serif" font-size="14" lengthAdjust="spacing" textLength="82" x="807" y="476.3613">... (&#20854;&#20182;&#23383;&#27573;)</text></g><!--class report--><g id="elem_report"><rect codeLine="102" fill="#F1F1F1" height="118.4375" id="report" rx="2.5" ry="2.5" style="stroke:#181818;stroke-width:0.5;" width="130" x="340.5" y="742"/><ellipse cx="365.4" cy="758" fill="#ADD1B2" rx="11" ry="11" style="stroke:#181818;stroke-width:1.0;"/><path d="M364.2594,758.7969 L364.2594,761.2969 L368.5875,761.2969 L368.5875,760.375 Q368.5875,759.7656 368.8219,759.5 Q369.0719,759.2344 369.4469,759.2344 Q369.8219,759.2344 370.0563,759.5 Q370.2906,759.7656 370.2906,760.375 L370.2906,763 L362.2906,763 Q361.6656,763 361.4,762.7656 Q361.15,762.5313 361.15,762.1406 Q361.15,761.7656 361.4156,761.5313 Q361.6813,761.2969 362.2906,761.2969 L362.5563,761.2969 L362.5563,754.6406 L362.2906,754.6406 Q361.6656,754.6406 361.4,754.4063 Q361.15,754.1719 361.15,753.7813 Q361.15,753.4063 361.4,753.1719 Q361.6656,752.9375 362.2906,752.9375 L369.9156,752.9375 L369.9156,755.5313 Q369.9156,756.1406 369.6813,756.4063 Q369.4625,756.6563 369.0719,756.6563 Q368.6969,756.6563 368.4625,756.4063 Q368.2281,756.1406 368.2281,755.5313 L368.2281,754.6406 L364.2594,754.6406 L364.2594,757.0938 L365.7438,757.0938 Q365.7438,756.4375 365.8688,756.25 Q366.1344,755.8438 366.6031,755.8438 Q366.9781,755.8438 367.2125,756.1094 Q367.4469,756.3594 367.4469,756.9688 L367.4469,758.9375 Q367.4469,759.4844 367.3219,759.6719 Q367.0563,760.0625 366.6031,760.0625 Q366.1344,760.0625 365.8688,759.6563 Q365.7438,759.4688 365.7438,758.7969 L364.2594,758.7969 Z " fill="#000000"/><text fill="#000000" font-family="sans-serif" font-size="14" lengthAdjust="spacing" textLength="76" x="381.6" y="763.7285">&#20030;&#25253;(report)</text><line style="stroke:#181818;stroke-width:0.5;" x1="341.5" x2="469.5" y1="774" y2="774"/><ellipse cx="351.5" cy="788.3047" fill="none" rx="3" ry="3" style="stroke:#038048;stroke-width:1.0;"/><text fill="#000000" font-family="sans-serif" font-size="14" lengthAdjust="spacing" textLength="82" x="360.5" y="792.5332">id : INT &#171;PK&#187;</text><line style="stroke:#181818;stroke-width:1.0;" x1="341.5" x2="469.5" y1="799.6094" y2="799.6094"/><text fill="#000000" font-family="sans-serif" font-size="14" lengthAdjust="spacing" textLength="79" x="346.5" y="818.1426">type_id : INT</text><text fill="#000000" font-family="sans-serif" font-size="14" lengthAdjust="spacing" textLength="118" x="346.5" y="835.752">user_id : INT &#171;FK&#187;</text><text fill="#000000" font-family="sans-serif" font-size="14" lengthAdjust="spacing" textLength="82" x="346.5" y="853.3613">... (&#20854;&#20182;&#23383;&#27573;)</text></g><!--class note_tag--><g id="elem_note_tag"><rect codeLine="111" fill="#F1F1F1" height="118.4375" id="note_tag" rx="2.5" ry="2.5" style="stroke:#181818;stroke-width:0.5;" width="187" x="1102.5" y="484"/><ellipse cx="1117.5" cy="500" fill="#ADD1B2" rx="11" ry="11" style="stroke:#181818;stroke-width:1.0;"/><path d="M1116.3594,500.7969 L1116.3594,503.2969 L1120.6875,503.2969 L1120.6875,502.375 Q1120.6875,501.7656 1120.9219,501.5 Q1121.1719,501.2344 1121.5469,501.2344 Q1121.9219,501.2344 1122.1563,501.5 Q1122.3906,501.7656 1122.3906,502.375 L1122.3906,505 L1114.3906,505 Q1113.7656,505 1113.5,504.7656 Q1113.25,504.5313 1113.25,504.1406 Q1113.25,503.7656 1113.5156,503.5313 Q1113.7813,503.2969 1114.3906,503.2969 L1114.6563,503.2969 L1114.6563,496.6406 L1114.3906,496.6406 Q1113.7656,496.6406 1113.5,496.4063 Q1113.25,496.1719 1113.25,495.7813 Q1113.25,495.4063 1113.5,495.1719 Q1113.7656,494.9375 1114.3906,494.9375 L1122.0156,494.9375 L1122.0156,497.5313 Q1122.0156,498.1406 1121.7813,498.4063 Q1121.5625,498.6563 1121.1719,498.6563 Q1120.7969,498.6563 1120.5625,498.4063 Q1120.3281,498.1406 1120.3281,497.5313 L1120.3281,496.6406 L1116.3594,496.6406 L1116.3594,499.0938 L1117.8438,499.0938 Q1117.8438,498.4375 1117.9688,498.25 Q1118.2344,497.8438 1118.7031,497.8438 Q1119.0781,497.8438 1119.3125,498.1094 Q1119.5469,498.3594 1119.5469,498.9688 L1119.5469,500.9375 Q1119.5469,501.4844 1119.4219,501.6719 Q1119.1563,502.0625 1118.7031,502.0625 Q1118.2344,502.0625 1117.9688,501.6563 Q1117.8438,501.4688 1117.8438,500.7969 L1116.3594,500.7969 Z " fill="#000000"/><text fill="#000000" font-family="sans-serif" font-size="14" lengthAdjust="spacing" textLength="155" x="1131.5" y="505.7285">&#31508;&#35760;-&#26631;&#31614;&#20851;&#32852;(note_tag)</text><line style="stroke:#181818;stroke-width:0.5;" x1="1103.5" x2="1288.5" y1="516" y2="516"/><ellipse cx="1113.5" cy="530.3047" fill="none" rx="3" ry="3" style="stroke:#038048;stroke-width:1.0;"/><text fill="#000000" font-family="sans-serif" font-size="14" lengthAdjust="spacing" textLength="82" x="1122.5" y="534.5332">id : INT &#171;PK&#187;</text><line style="stroke:#181818;stroke-width:1.0;" x1="1103.5" x2="1288.5" y1="541.6094" y2="541.6094"/><text fill="#000000" font-family="sans-serif" font-size="14" lengthAdjust="spacing" textLength="118" x="1108.5" y="560.1426">note_id : INT &#171;FK&#187;</text><text fill="#000000" font-family="sans-serif" font-size="14" lengthAdjust="spacing" textLength="110" x="1108.5" y="577.752">tag_id : INT &#171;FK&#187;</text><text fill="#000000" font-family="sans-serif" font-size="14" lengthAdjust="spacing" textLength="141" x="1108.5" y="595.3613">&#171;U1&#187; (note_id, tag_id)</text></g><!--link user to class--><g id="link_user_class"><path codeLine="121" d="M254.04,462 C274,462 268.53,462 287.92,462 " fill="none" id="user-class" style="stroke:#181818;stroke-width:1.0;"/><line style="stroke:#181818;stroke-width:1.0;" x1="250.04" x2="250.04" y1="466" y2="458"/><line style="stroke:#181818;stroke-width:1.0;" x1="253.04" x2="253.04" y1="466" y2="458"/><line style="stroke:#181818;stroke-width:1.0;" x1="254.04" x2="246.04" y1="462" y2="462"/><line style="stroke:#181818;stroke-width:1.0;" x1="297.92" x2="305.92" y1="462" y2="456"/><line style="stroke:#181818;stroke-width:1.0;" x1="297.92" x2="305.92" y1="462" y2="468"/><line style="stroke:#181818;stroke-width:1.0;" x1="297.92" x2="305.92" y1="462" y2="462"/><ellipse cx="291.92" cy="462" fill="none" rx="4" ry="4" style="stroke:#181818;stroke-width:1.0;"/><text fill="#000000" font-family="sans-serif" font-size="13" lengthAdjust="spacing" textLength="56" x="218.98" y="476.4951">&#21019;&#24314;/&#25945;&#25480;</text></g><!--link user to note--><g id="link_user_note"><path codeLine="122" d="M167,412 C167,340 167,251.5 167,251.5 C167,251.5 638.57,251.5 827.42,251.5 " fill="none" id="user-note" style="stroke:#181818;stroke-width:1.0;"/><line style="stroke:#181818;stroke-width:1.0;" x1="171" x2="163" y1="416" y2="416"/><line style="stroke:#181818;stroke-width:1.0;" x1="171" x2="163" y1="413" y2="413"/><line style="stroke:#181818;stroke-width:1.0;" x1="167" x2="167" y1="412" y2="420"/><line style="stroke:#181818;stroke-width:1.0;" x1="837.42" x2="845.42" y1="251.5" y2="245.5"/><line style="stroke:#181818;stroke-width:1.0;" x1="837.42" x2="845.42" y1="251.5" y2="257.5"/><line style="stroke:#181818;stroke-width:1.0;" x1="837.42" x2="845.42" y1="251.5" y2="251.5"/><ellipse cx="831.42" cy="251.5" fill="none" rx="4" ry="4" style="stroke:#181818;stroke-width:1.0;"/><text fill="#000000" font-family="sans-serif" font-size="13" lengthAdjust="spacing" textLength="26" x="394.96" y="265.9951">&#21019;&#20316;</text></g><!--link user to class_joined--><g id="link_user_class_joined"><path codeLine="123" d="M254.3,527.33 C351.25,527.33 459.57,527.33 546.87,527.33 " fill="none" id="user-class_joined" style="stroke:#181818;stroke-width:1.0;"/><line style="stroke:#181818;stroke-width:1.0;" x1="250.3" x2="250.3" y1="531.33" y2="523.33"/><line style="stroke:#181818;stroke-width:1.0;" x1="253.3" x2="253.3" y1="531.33" y2="523.33"/><line style="stroke:#181818;stroke-width:1.0;" x1="254.3" x2="246.3" y1="527.33" y2="527.33"/><line style="stroke:#181818;stroke-width:1.0;" x1="556.87" x2="564.87" y1="527.33" y2="521.33"/><line style="stroke:#181818;stroke-width:1.0;" x1="556.87" x2="564.87" y1="527.33" y2="533.33"/><line style="stroke:#181818;stroke-width:1.0;" x1="556.87" x2="564.87" y1="527.33" y2="527.33"/><ellipse cx="550.87" cy="527.33" fill="none" rx="4" ry="4" style="stroke:#181818;stroke-width:1.0;"/><text fill="#000000" font-family="sans-serif" font-size="13" lengthAdjust="spacing" textLength="78" x="326.59" y="541.8251">&#21442;&#19982;&#65288;&#23398;&#29983;&#65289;</text></g><!--link user to note_comment--><g id="link_user_note_comment"><path codeLine="124" d="M87,411.8 C87,284.46 87,52.33 87,52.33 C87,52.33 813.48,52.33 1082.49,52.33 " fill="none" id="user-note_comment" style="stroke:#181818;stroke-width:1.0;"/><line style="stroke:#181818;stroke-width:1.0;" x1="91" x2="83" y1="415.8" y2="415.8"/><line style="stroke:#181818;stroke-width:1.0;" x1="91" x2="83" y1="412.8" y2="412.8"/><line style="stroke:#181818;stroke-width:1.0;" x1="87" x2="87" y1="411.8" y2="419.8"/><line style="stroke:#181818;stroke-width:1.0;" x1="1092.49" x2="1100.49" y1="52.33" y2="46.33"/><line style="stroke:#181818;stroke-width:1.0;" x1="1092.49" x2="1100.49" y1="52.33" y2="58.33"/><line style="stroke:#181818;stroke-width:1.0;" x1="1092.49" x2="1100.49" y1="52.33" y2="52.33"/><ellipse cx="1086.49" cy="52.33" fill="none" rx="4" ry="4" style="stroke:#181818;stroke-width:1.0;"/><text fill="#000000" font-family="sans-serif" font-size="13" lengthAdjust="spacing" textLength="78" x="331.01" y="66.8251">&#35780;&#20215;&#65288;&#25945;&#24072;&#65289;</text></g><!--link user to note_interaction--><g id="link_user_note_interaction"><path codeLine="125" d="M127,582 C127,641.94 127,707 127,707 C127,707 812.16,707 1077.91,707 " fill="none" id="user-note_interaction" style="stroke:#181818;stroke-width:1.0;"/><line style="stroke:#181818;stroke-width:1.0;" x1="123" x2="131" y1="578" y2="578"/><line style="stroke:#181818;stroke-width:1.0;" x1="123" x2="131" y1="581" y2="581"/><line style="stroke:#181818;stroke-width:1.0;" x1="127" x2="127" y1="582" y2="574"/><line style="stroke:#181818;stroke-width:1.0;" x1="1087.91" x2="1095.91" y1="707" y2="701"/><line style="stroke:#181818;stroke-width:1.0;" x1="1087.91" x2="1095.91" y1="707" y2="713"/><line style="stroke:#181818;stroke-width:1.0;" x1="1087.91" x2="1095.91" y1="707" y2="707"/><ellipse cx="1081.91" cy="707" fill="none" rx="4" ry="4" style="stroke:#181818;stroke-width:1.0;"/><text fill="#000000" font-family="sans-serif" font-size="13" lengthAdjust="spacing" textLength="26" x="517.96" y="721.4951">&#20114;&#21160;</text></g><!--link class to task--><g id="link_class_task"><path codeLine="128" d="M513.1,415.5 C537.95,415.5 538.15,415.5 561.48,415.5 " fill="none" id="class-task" style="stroke:#181818;stroke-width:1.0;"/><line style="stroke:#181818;stroke-width:1.0;" x1="509.1" x2="509.1" y1="419.5" y2="411.5"/><line style="stroke:#181818;stroke-width:1.0;" x1="512.1" x2="512.1" y1="419.5" y2="411.5"/><line style="stroke:#181818;stroke-width:1.0;" x1="513.1" x2="505.1" y1="415.5" y2="415.5"/><line style="stroke:#181818;stroke-width:1.0;" x1="571.48" x2="579.48" y1="415.5" y2="409.5"/><line style="stroke:#181818;stroke-width:1.0;" x1="571.48" x2="579.48" y1="415.5" y2="421.5"/><line style="stroke:#181818;stroke-width:1.0;" x1="571.48" x2="579.48" y1="415.5" y2="415.5"/><ellipse cx="565.48" cy="415.5" fill="none" rx="4" ry="4" style="stroke:#181818;stroke-width:1.0;"/><text fill="#000000" font-family="sans-serif" font-size="13" lengthAdjust="spacing" textLength="26" x="515.29" y="429.9951">&#21457;&#24067;</text></g><!--link class to class_joined--><g id="link_class_class_joined"><path codeLine="129" d="M513.35,491 C549.23,491 573,491 573,491 C573,491 573,475.52 573,479.57 " fill="none" id="class-class_joined" style="stroke:#181818;stroke-width:1.0;"/><line style="stroke:#181818;stroke-width:1.0;" x1="509.35" x2="509.35" y1="495" y2="487"/><line style="stroke:#181818;stroke-width:1.0;" x1="512.35" x2="512.35" y1="495" y2="487"/><line style="stroke:#181818;stroke-width:1.0;" x1="513.35" x2="505.35" y1="491" y2="491"/><line style="stroke:#181818;stroke-width:1.0;" x1="573" x2="579" y1="489.57" y2="497.57"/><line style="stroke:#181818;stroke-width:1.0;" x1="573" x2="567" y1="489.57" y2="497.57"/><line style="stroke:#181818;stroke-width:1.0;" x1="573" x2="573" y1="489.57" y2="497.57"/><ellipse cx="573" cy="483.57" fill="none" rx="4" ry="4" style="stroke:#181818;stroke-width:1.0;"/><text fill="#000000" font-family="sans-serif" font-size="13" lengthAdjust="spacing" textLength="52" x="543.46" y="487.4951">&#21253;&#21547;&#23398;&#29983;</text></g><!--link task to note--><g id="link_task_note"><path codeLine="130" d="M734.59,342.33 C805.79,342.33 895,342.33 895,342.33 C895,342.33 895,355.59 895,348.29 " fill="none" id="task-note" style="stroke:#181818;stroke-width:1.0;"/><line style="stroke:#181818;stroke-width:1.0;" x1="730.59" x2="730.59" y1="346.33" y2="338.33"/><line style="stroke:#181818;stroke-width:1.0;" x1="733.59" x2="733.59" y1="346.33" y2="338.33"/><line style="stroke:#181818;stroke-width:1.0;" x1="734.59" x2="726.59" y1="342.33" y2="342.33"/><line style="stroke:#181818;stroke-width:1.0;" x1="895" x2="889" y1="338.29" y2="330.29"/><line style="stroke:#181818;stroke-width:1.0;" x1="895" x2="901" y1="338.29" y2="330.29"/><line style="stroke:#181818;stroke-width:1.0;" x1="895" x2="895" y1="338.29" y2="330.29"/><ellipse cx="895" cy="344.29" fill="none" rx="4" ry="4" style="stroke:#181818;stroke-width:1.0;"/><text fill="#000000" font-family="sans-serif" font-size="13" lengthAdjust="spacing" textLength="117" x="817.82" y="356.8251">&#20851;&#32852;&#20026;&#65288;&#20316;&#19994;&#31508;&#35760;&#65289;</text></g><!--link task to assignment_summary--><g id="link_task_assignment_summary"><path codeLine="131" d="M734.6,414 C757.62,414 757.63,414 782.89,414 " fill="none" id="task-assignment_summary" style="stroke:#181818;stroke-width:1.0;"/><line style="stroke:#181818;stroke-width:1.0;" x1="730.6" x2="730.6" y1="418" y2="410"/><line style="stroke:#181818;stroke-width:1.0;" x1="733.6" x2="733.6" y1="418" y2="410"/><line style="stroke:#181818;stroke-width:1.0;" x1="734.6" x2="726.6" y1="414" y2="414"/><line style="stroke:#181818;stroke-width:1.0;" x1="792.89" x2="800.89" y1="414" y2="408"/><line style="stroke:#181818;stroke-width:1.0;" x1="792.89" x2="800.89" y1="414" y2="420"/><line style="stroke:#181818;stroke-width:1.0;" x1="792.89" x2="800.89" y1="414" y2="414"/><ellipse cx="786.89" cy="414" fill="none" rx="4" ry="4" style="stroke:#181818;stroke-width:1.0;"/><text fill="#000000" font-family="sans-serif" font-size="13" lengthAdjust="spacing" textLength="52" x="710.75" y="428.4951">&#25317;&#26377;&#24635;&#32467;</text></g><!--link note to note_att--><g id="link_note_note_att"><path codeLine="134" d="M943,338.06 C943,351.71 943,353.67 943,353.67 C943,353.67 1021.07,353.67 1094.81,353.67 " fill="none" id="note-note_att" style="stroke:#181818;stroke-width:1.0;"/><line style="stroke:#181818;stroke-width:1.0;" x1="939" x2="947" y1="334.06" y2="334.06"/><line style="stroke:#181818;stroke-width:1.0;" x1="939" x2="947" y1="337.06" y2="337.06"/><line style="stroke:#181818;stroke-width:1.0;" x1="943" x2="943" y1="338.06" y2="330.06"/><line style="stroke:#181818;stroke-width:1.0;" x1="1104.81" x2="1112.81" y1="353.67" y2="347.67"/><line style="stroke:#181818;stroke-width:1.0;" x1="1104.81" x2="1112.81" y1="353.67" y2="359.67"/><line style="stroke:#181818;stroke-width:1.0;" x1="1104.81" x2="1112.81" y1="353.67" y2="353.67"/><ellipse cx="1098.81" cy="353.67" fill="none" rx="4" ry="4" style="stroke:#181818;stroke-width:1.0;"/><text fill="#000000" font-family="sans-serif" font-size="13" lengthAdjust="spacing" textLength="52" x="963.1" y="350.1651">&#25317;&#26377;&#38468;&#20214;</text></g><!--link note to note_version--><g id="link_note_note_version"><path codeLine="135" d="M999.77,237 C1034.78,237 1051,237 1087.94,237 " fill="none" id="note-note_version" style="stroke:#181818;stroke-width:1.0;"/><line style="stroke:#181818;stroke-width:1.0;" x1="995.77" x2="995.77" y1="241" y2="233"/><line style="stroke:#181818;stroke-width:1.0;" x1="998.77" x2="998.77" y1="241" y2="233"/><line style="stroke:#181818;stroke-width:1.0;" x1="999.77" x2="991.77" y1="237" y2="237"/><line style="stroke:#181818;stroke-width:1.0;" x1="1097.94" x2="1105.94" y1="237" y2="231"/><line style="stroke:#181818;stroke-width:1.0;" x1="1097.94" x2="1105.94" y1="237" y2="243"/><line style="stroke:#181818;stroke-width:1.0;" x1="1097.94" x2="1105.94" y1="237" y2="237"/><ellipse cx="1091.94" cy="237" fill="none" rx="4" ry="4" style="stroke:#181818;stroke-width:1.0;"/><text fill="#000000" font-family="sans-serif" font-size="13" lengthAdjust="spacing" textLength="52" x="995.86" y="251.4951">&#21382;&#21490;&#29256;&#26412;</text></g><!--link note to note_comment--><g id="link_note_note_comment"><path codeLine="136" d="M919,167.79 C919,128.8 919,97.67 919,97.67 C919,97.67 1002.22,97.67 1082.28,97.67 " fill="none" id="note-note_comment" style="stroke:#181818;stroke-width:1.0;"/><line style="stroke:#181818;stroke-width:1.0;" x1="923" x2="915" y1="171.79" y2="171.79"/><line style="stroke:#181818;stroke-width:1.0;" x1="923" x2="915" y1="168.79" y2="168.79"/><line style="stroke:#181818;stroke-width:1.0;" x1="919" x2="919" y1="167.79" y2="175.79"/><line style="stroke:#181818;stroke-width:1.0;" x1="1092.28" x2="1100.28" y1="97.67" y2="91.67"/><line style="stroke:#181818;stroke-width:1.0;" x1="1092.28" x2="1100.28" y1="97.67" y2="103.67"/><line style="stroke:#181818;stroke-width:1.0;" x1="1092.28" x2="1100.28" y1="97.67" y2="97.67"/><ellipse cx="1086.28" cy="97.67" fill="none" rx="4" ry="4" style="stroke:#181818;stroke-width:1.0;"/><text fill="#000000" font-family="sans-serif" font-size="13" lengthAdjust="spacing" textLength="52" x="917.58" y="112.1651">&#33719;&#24471;&#35780;&#20215;</text></g><!--link note to note_interaction--><g id="link_note_note_interaction"><path codeLine="137" d="M999.82,318.67 C1036.84,318.67 1066,318.67 1066,318.67 C1066,318.67 1066,672 1066,672 C1066,672 1060.54,672 1077.82,672 " fill="none" id="note-note_interaction" style="stroke:#181818;stroke-width:1.0;"/><line style="stroke:#181818;stroke-width:1.0;" x1="995.82" x2="995.82" y1="322.67" y2="314.67"/><line style="stroke:#181818;stroke-width:1.0;" x1="998.82" x2="998.82" y1="322.67" y2="314.67"/><line style="stroke:#181818;stroke-width:1.0;" x1="999.82" x2="991.82" y1="318.67" y2="318.67"/><line style="stroke:#181818;stroke-width:1.0;" x1="1087.82" x2="1095.82" y1="672" y2="666"/><line style="stroke:#181818;stroke-width:1.0;" x1="1087.82" x2="1095.82" y1="672" y2="678"/><line style="stroke:#181818;stroke-width:1.0;" x1="1087.82" x2="1095.82" y1="672" y2="672"/><ellipse cx="1081.82" cy="672" fill="none" rx="4" ry="4" style="stroke:#181818;stroke-width:1.0;"/><text fill="#000000" font-family="sans-serif" font-size="13" lengthAdjust="spacing" textLength="52" x="1067" y="469.6451">&#33719;&#24471;&#20114;&#21160;</text></g><!--link note to note_tag--><g id="link_note_note_tag"><path codeLine="138" d="M999.72,307.33 C1053.78,307.33 1110,307.33 1110,307.33 C1110,307.33 1110,396.03 1110,465.84 " fill="none" id="note-note_tag" style="stroke:#181818;stroke-width:1.0;"/><line style="stroke:#181818;stroke-width:1.0;" x1="995.72" x2="995.72" y1="311.33" y2="303.33"/><line style="stroke:#181818;stroke-width:1.0;" x1="998.72" x2="998.72" y1="311.33" y2="303.33"/><line style="stroke:#181818;stroke-width:1.0;" x1="999.72" x2="991.72" y1="307.33" y2="307.33"/><line style="stroke:#181818;stroke-width:1.0;" x1="1110" x2="1116" y1="475.84" y2="483.84"/><line style="stroke:#181818;stroke-width:1.0;" x1="1110" x2="1104" y1="475.84" y2="483.84"/><line style="stroke:#181818;stroke-width:1.0;" x1="1110" x2="1110" y1="475.84" y2="483.84"/><ellipse cx="1110" cy="469.84" fill="none" rx="4" ry="4" style="stroke:#181818;stroke-width:1.0;"/><text fill="#000000" font-family="sans-serif" font-size="13" lengthAdjust="spacing" textLength="52" x="1057" y="350.9351">&#25317;&#26377;&#26631;&#31614;</text></g><!--link tag to note_tag--><g id="link_tag_note_tag"><path codeLine="139" d="M1020.84,560 C1049.75,560 1055.53,560 1084.4,560 " fill="none" id="tag-note_tag" style="stroke:#181818;stroke-width:1.0;"/><line style="stroke:#181818;stroke-width:1.0;" x1="1016.84" x2="1016.84" y1="564" y2="556"/><line style="stroke:#181818;stroke-width:1.0;" x1="1019.84" x2="1019.84" y1="564" y2="556"/><line style="stroke:#181818;stroke-width:1.0;" x1="1020.84" x2="1012.84" y1="560" y2="560"/><line style="stroke:#181818;stroke-width:1.0;" x1="1094.4" x2="1102.4" y1="560" y2="554"/><line style="stroke:#181818;stroke-width:1.0;" x1="1094.4" x2="1102.4" y1="560" y2="566"/><line style="stroke:#181818;stroke-width:1.0;" x1="1094.4" x2="1102.4" y1="560" y2="560"/><ellipse cx="1088.4" cy="560" fill="none" rx="4" ry="4" style="stroke:#181818;stroke-width:1.0;"/><text fill="#000000" font-family="sans-serif" font-size="13" lengthAdjust="spacing" textLength="65" x="991.62" y="574.4951">&#34987;&#31508;&#35760;&#24341;&#29992;</text></g><!--link user to report--><g id="link_user_report"><path codeLine="142" d="M254.25,550.67 C330.11,550.67 406,550.67 406,550.67 C406,550.67 406,649.98 406,723.99 " fill="none" id="user-report" style="stroke:#181818;stroke-width:1.0;"/><line style="stroke:#181818;stroke-width:1.0;" x1="250.25" x2="250.25" y1="554.67" y2="546.67"/><line style="stroke:#181818;stroke-width:1.0;" x1="253.25" x2="253.25" y1="554.67" y2="546.67"/><line style="stroke:#181818;stroke-width:1.0;" x1="254.25" x2="246.25" y1="550.67" y2="550.67"/><line style="stroke:#181818;stroke-width:1.0;" x1="406" x2="412" y1="733.99" y2="741.99"/><line style="stroke:#181818;stroke-width:1.0;" x1="406" x2="400" y1="733.99" y2="741.99"/><line style="stroke:#181818;stroke-width:1.0;" x1="406" x2="406" y1="733.99" y2="741.99"/><ellipse cx="406" cy="727.99" fill="none" rx="4" ry="4" style="stroke:#181818;stroke-width:1.0;"/><text fill="#000000" font-family="sans-serif" font-size="13" lengthAdjust="spacing" textLength="26" x="379" y="580.9451">&#21457;&#36215;</text></g><!--SRC=[dLRVJnD147w_ls9pBvHeAw2y44A2MfMeQ4Wr-jHSshMSjdVaRcj2m0HKj5K2AbH28VwAcXe5L5GgnVh7U7ijJ_mBxkvSZsjxGE7bSZSxi_FDjpFVNXkYgzDsxaSuE4INob8ItoA8wCXG4yC4nLK3nuYgQv9vHzL654D9eQIgOJ8wWf5ka65TajhO1ddhTvQklhB-p4bO8oePHN9blc1dDW9f4nljCb9CnD_Gc8JGCQJ6KGyQ68oWtjwh5_lwc2qOP0_keIafp1Qlzm-TkT0_5EZiw6XtLg9ABAQdDU9PxUfePrjSwnHR65X9Hlt33Js98IFx28L2A42dVbcbbtHbmLxzsIxTarpOrRLofV0q44igfWcunUl-m8LBO-uko4sm4Xjcw3sXvo3K90f9cotYiluiMyLyW2Zc7O35trf1rPoNRPZq0Hh7IfoVBLivsny9HmOkXmz4LVaoNrtz6j1qWW4LVziVrHxPnGdxO6LL-fZlgYPhIcQD30pUR8K- -ytZoagPqPUeiPVO7sR3ONPxEosc49pGZT7wzHR9sbvyQ9L-2SgY2Y6xjF6l0p1nhsOoRgb974qRII-ftTsjugckCJmRW2Ucfr9irOF9iHmUrovR-mn0J3TQdKi0Qss-e4yA05RL23OKeKuUm1xhaSZSgm-vu1q6QIMRiPU_0DAxs33hKJgM8o6inHv6p-ZiVQiu0weMlQspAOzxnCsn74rDJ9AEisG-Awq8cZrHgfJc0cnhDQ7nJekQwLHACKO1NhFT2_Bqm7aVVN4Lmrsk8NLsw46NhWoUZuHljA2wnRBzv4F0m2FiiWD8y7w0nh5kSGdPkwdySxFxT6gzEZaFz-dELeQ-pzErt_mvjLvPBrNV5dQsiWtj5WI1WqZeEbVhQbz7wZOMvsE5uKRE8CQFEsur_F0_8D2opyuGijyKwTy7ODdPoiE_0Uj8wCv_4vDGXIJ-4SR7Wq5zpBbtUv1CCqkqj7d2pYtQCncvpaTSD-32-abkZg-rDlSHCy3vNFbOcN_DE6pUozMx7ZuvN1YPFqjCYnb_Vw_Si1ZG9vcJq1L2RdNGwswPmCFsN5c26fqDnOqkW3wdnGTo_M9JDTDJzDbdA4MMH6WZ9w8NhE8cAm40G7PHY3V0PyXOkFtqWxsSXVaK1PqC8KVQyW_jx2VwBUUSi4Ze9OLVPEuESD_9pLwxEYRJcKTqzZj8fe-dzr1cDcXv0Ox6nxFXEC2xTYXDtdmcTYiL0yIPIVWvLTzzTWvlAyVQLp1oAeISwGKYlDtXo0GSP_NdXlmV]--></g></svg>