<?xml version="1.0" encoding="us-ascii" standalone="no"?><svg xmlns="http://www.w3.org/2000/svg" xmlns:xlink="http://www.w3.org/1999/xlink" contentStyleType="text/css" height="175px" preserveAspectRatio="none" style="width:950px;height:175px;background:#FFFFFF;" version="1.1" viewBox="0 0 950 175" width="950px" zoomAndPan="magnify"><defs/><g><!--class user--><g id="elem_user"><rect codeLine="5" fill="#F1F1F1" height="118.4375" id="user" rx="2.5" ry="2.5" style="stroke:#181818;stroke-width:0.5;" width="191" x="7" y="50.5"/><ellipse cx="65.25" cy="66.5" fill="#ADD1B2" rx="11" ry="11" style="stroke:#181818;stroke-width:1.0;"/><path d="M64.1094,67.2969 L64.1094,69.7969 L68.4375,69.7969 L68.4375,68.875 Q68.4375,68.2656 68.6719,68 Q68.9219,67.7344 69.2969,67.7344 Q69.6719,67.7344 69.9063,68 Q70.1406,68.2656 70.1406,68.875 L70.1406,71.5 L62.1406,71.5 Q61.5156,71.5 61.25,71.2656 Q61,71.0313 61,70.6406 Q61,70.2656 61.2656,70.0313 Q61.5313,69.7969 62.1406,69.7969 L62.4063,69.7969 L62.4063,63.1406 L62.1406,63.1406 Q61.5156,63.1406 61.25,62.9063 Q61,62.6719 61,62.2813 Q61,61.9063 61.25,61.6719 Q61.5156,61.4375 62.1406,61.4375 L69.7656,61.4375 L69.7656,64.0313 Q69.7656,64.6406 69.5313,64.9063 Q69.3125,65.1563 68.9219,65.1563 Q68.5469,65.1563 68.3125,64.9063 Q68.0781,64.6406 68.0781,64.0313 L68.0781,63.1406 L64.1094,63.1406 L64.1094,65.5938 L65.5938,65.5938 Q65.5938,64.9375 65.7188,64.75 Q65.9844,64.3438 66.4531,64.3438 Q66.8281,64.3438 67.0625,64.6094 Q67.2969,64.8594 67.2969,65.4688 L67.2969,67.4375 Q67.2969,67.9844 67.1719,68.1719 Q66.9063,68.5625 66.4531,68.5625 Q65.9844,68.5625 65.7188,68.1563 Q65.5938,67.9688 65.5938,67.2969 L64.1094,67.2969 Z " fill="#000000"/><text fill="#000000" font-family="sans-serif" font-size="14" lengthAdjust="spacing" textLength="66" x="85.75" y="72.2285">&#29992;&#25143;(user)</text><line style="stroke:#181818;stroke-width:0.5;" x1="8" x2="197" y1="82.5" y2="82.5"/><ellipse cx="18" cy="96.8047" fill="none" rx="3" ry="3" style="stroke:#038048;stroke-width:1.0;"/><text fill="#000000" font-family="sans-serif" font-size="14" lengthAdjust="spacing" textLength="82" x="27" y="101.0332">id : INT &#171;PK&#187;</text><line style="stroke:#181818;stroke-width:1.0;" x1="8" x2="197" y1="108.1094" y2="108.1094"/><text fill="#000000" font-family="sans-serif" font-size="14" lengthAdjust="spacing" textLength="175" x="13" y="126.6426">username : VARCHAR(100)</text><text fill="#000000" font-family="sans-serif" font-size="14" lengthAdjust="spacing" textLength="57" x="13" y="144.252">role : INT</text><text fill="#000000" font-family="sans-serif" font-size="14" lengthAdjust="spacing" textLength="179" x="13" y="161.8613">real_name : VARCHAR(100)</text></g><!--class class--><g id="elem_class"><rect codeLine="13" fill="#F1F1F1" height="100.8281" id="class" rx="2.5" ry="2.5" style="stroke:#181818;stroke-width:0.5;" width="199" x="258" y="7"/><ellipse cx="318.25" cy="23" fill="#ADD1B2" rx="11" ry="11" style="stroke:#181818;stroke-width:1.0;"/><path d="M317.1094,23.7969 L317.1094,26.2969 L321.4375,26.2969 L321.4375,25.375 Q321.4375,24.7656 321.6719,24.5 Q321.9219,24.2344 322.2969,24.2344 Q322.6719,24.2344 322.9063,24.5 Q323.1406,24.7656 323.1406,25.375 L323.1406,28 L315.1406,28 Q314.5156,28 314.25,27.7656 Q314,27.5313 314,27.1406 Q314,26.7656 314.2656,26.5313 Q314.5313,26.2969 315.1406,26.2969 L315.4063,26.2969 L315.4063,19.6406 L315.1406,19.6406 Q314.5156,19.6406 314.25,19.4063 Q314,19.1719 314,18.7813 Q314,18.4063 314.25,18.1719 Q314.5156,17.9375 315.1406,17.9375 L322.7656,17.9375 L322.7656,20.5313 Q322.7656,21.1406 322.5313,21.4063 Q322.3125,21.6563 321.9219,21.6563 Q321.5469,21.6563 321.3125,21.4063 Q321.0781,21.1406 321.0781,20.5313 L321.0781,19.6406 L317.1094,19.6406 L317.1094,22.0938 L318.5938,22.0938 Q318.5938,21.4375 318.7188,21.25 Q318.9844,20.8438 319.4531,20.8438 Q319.8281,20.8438 320.0625,21.1094 Q320.2969,21.3594 320.2969,21.9688 L320.2969,23.9375 Q320.2969,24.4844 320.1719,24.6719 Q319.9063,25.0625 319.4531,25.0625 Q318.9844,25.0625 318.7188,24.6563 Q318.5938,24.4688 318.5938,23.7969 L317.1094,23.7969 Z " fill="#000000"/><text fill="#000000" font-family="sans-serif" font-size="14" lengthAdjust="spacing" textLength="70" x="338.75" y="28.7285">&#35838;&#31243;(class)</text><line style="stroke:#181818;stroke-width:0.5;" x1="259" x2="456" y1="39" y2="39"/><ellipse cx="269" cy="53.3047" fill="none" rx="3" ry="3" style="stroke:#038048;stroke-width:1.0;"/><text fill="#000000" font-family="sans-serif" font-size="14" lengthAdjust="spacing" textLength="82" x="278" y="57.5332">id : INT &#171;PK&#187;</text><line style="stroke:#181818;stroke-width:1.0;" x1="259" x2="456" y1="64.6094" y2="64.6094"/><text fill="#000000" font-family="sans-serif" font-size="14" lengthAdjust="spacing" textLength="187" x="264" y="83.1426">class_name : VARCHAR(200)</text><text fill="#000000" font-family="sans-serif" font-size="14" lengthAdjust="spacing" textLength="138" x="264" y="100.752">teacher_id : INT &#171;FK&#187;</text></g><!--class class_joined--><g id="elem_class_joined"><rect codeLine="20" fill="#F1F1F1" height="118.4375" id="class_joined" rx="2.5" ry="2.5" style="stroke:#181818;stroke-width:0.5;" width="176" x="517" y="50.5"/><ellipse cx="532" cy="66.5" fill="#ADD1B2" rx="11" ry="11" style="stroke:#181818;stroke-width:1.0;"/><path d="M530.8594,67.2969 L530.8594,69.7969 L535.1875,69.7969 L535.1875,68.875 Q535.1875,68.2656 535.4219,68 Q535.6719,67.7344 536.0469,67.7344 Q536.4219,67.7344 536.6563,68 Q536.8906,68.2656 536.8906,68.875 L536.8906,71.5 L528.8906,71.5 Q528.2656,71.5 528,71.2656 Q527.75,71.0313 527.75,70.6406 Q527.75,70.2656 528.0156,70.0313 Q528.2813,69.7969 528.8906,69.7969 L529.1563,69.7969 L529.1563,63.1406 L528.8906,63.1406 Q528.2656,63.1406 528,62.9063 Q527.75,62.6719 527.75,62.2813 Q527.75,61.9063 528,61.6719 Q528.2656,61.4375 528.8906,61.4375 L536.5156,61.4375 L536.5156,64.0313 Q536.5156,64.6406 536.2813,64.9063 Q536.0625,65.1563 535.6719,65.1563 Q535.2969,65.1563 535.0625,64.9063 Q534.8281,64.6406 534.8281,64.0313 L534.8281,63.1406 L530.8594,63.1406 L530.8594,65.5938 L532.3438,65.5938 Q532.3438,64.9375 532.4688,64.75 Q532.7344,64.3438 533.2031,64.3438 Q533.5781,64.3438 533.8125,64.6094 Q534.0469,64.8594 534.0469,65.4688 L534.0469,67.4375 Q534.0469,67.9844 533.9219,68.1719 Q533.6563,68.5625 533.2031,68.5625 Q532.7344,68.5625 532.4688,68.1563 Q532.3438,67.9688 532.3438,67.2969 L530.8594,67.2969 Z " fill="#000000"/><text fill="#000000" font-family="sans-serif" font-size="14" lengthAdjust="spacing" textLength="144" x="546" y="72.2285">&#35838;&#31243;&#21442;&#19982;(class_joined)</text><line style="stroke:#181818;stroke-width:0.5;" x1="518" x2="692" y1="82.5" y2="82.5"/><ellipse cx="528" cy="96.8047" fill="none" rx="3" ry="3" style="stroke:#038048;stroke-width:1.0;"/><text fill="#000000" font-family="sans-serif" font-size="14" lengthAdjust="spacing" textLength="82" x="537" y="101.0332">id : INT &#171;PK&#187;</text><line style="stroke:#181818;stroke-width:1.0;" x1="518" x2="692" y1="108.1094" y2="108.1094"/><text fill="#000000" font-family="sans-serif" font-size="14" lengthAdjust="spacing" textLength="122" x="523" y="126.6426">class_id : INT &#171;FK&#187;</text><text fill="#000000" font-family="sans-serif" font-size="14" lengthAdjust="spacing" textLength="137" x="523" y="144.252">student_id : INT &#171;FK&#187;</text><text fill="#000000" font-family="sans-serif" font-size="14" lengthAdjust="spacing" textLength="71" x="523" y="161.8613">status : INT</text></g><g id="elem_GMN8"><path d="M753,88 L753,105.5 L693.07,109.5 L753,113.5 L753,130.7031 A0,0 0 0 0 753,130.7031 L943,130.7031 A0,0 0 0 0 943,130.7031 L943,98 L933,88 L753,88 A0,0 0 0 0 753,88 " fill="#FEFFDD" style="stroke:#181818;stroke-width:0.5;"/><path d="M933,88 L933,98 L943,98 L933,88 " fill="#FEFFDD" style="stroke:#181818;stroke-width:0.5;"/><text fill="#000000" font-family="sans-serif" font-size="13" lengthAdjust="spacing" textLength="169" x="759" y="106.4951">&#35813;&#34920;&#24314;&#31435;&#20102;&#23398;&#29983;&#19982;&#35838;&#31243;&#20043;&#38388;&#30340;</text><text fill="#000000" font-family="sans-serif" font-size="13" lengthAdjust="spacing" textLength="104" x="759" y="122.8467">&#22810;&#23545;&#22810;&#21442;&#19982;&#20851;&#31995;&#12290;</text></g><!--link user to class--><g id="link_user_class"><path codeLine="29" d="M198.18,79.25 C217.68,79.25 238.24,79.25 257.88,79.25 " fill="none" id="user-class" style="stroke:#181818;stroke-width:1.0;"/><text fill="#000000" font-family="sans-serif" font-size="13" lengthAdjust="spacing" textLength="211" x="16.03" y="75.7451">teacher_id = user.id &#171;&#20316;&#20026;&#25945;&#24072;&#21019;&#24314;&#187;</text><text fill="#000000" font-family="sans-serif" font-size="13" lengthAdjust="spacing" textLength="7" x="206.0834" y="90.9686">1</text><text fill="#000000" font-family="sans-serif" font-size="13" lengthAdjust="spacing" textLength="22" x="228.102" y="94.8553">0..n</text></g><!--link user to class_joined--><g id="link_user_class_joined"><path codeLine="30" d="M198.2,138.25 C290.03,138.25 427.58,138.25 516.81,138.25 " fill="none" id="user-class_joined" style="stroke:#181818;stroke-width:1.0;"/><text fill="#000000" font-family="sans-serif" font-size="13" lengthAdjust="spacing" textLength="211" x="145.51" y="134.7451">student_id = user.id &#171;&#20316;&#20026;&#23398;&#29983;&#21152;&#20837;&#187;</text><text fill="#000000" font-family="sans-serif" font-size="13" lengthAdjust="spacing" textLength="7" x="206.105" y="154.6702">1</text><text fill="#000000" font-family="sans-serif" font-size="13" lengthAdjust="spacing" textLength="22" x="486.9058" y="154.6702">0..n</text></g><!--link class to class_joined--><g id="link_class_class_joined"><path codeLine="31" d="M457.1,79.25 C476.84,79.25 497.44,79.25 516.78,79.25 " fill="none" id="class-class_joined" style="stroke:#181818;stroke-width:1.0;"/><text fill="#000000" font-family="sans-serif" font-size="13" lengthAdjust="spacing" textLength="179" x="306.94" y="75.7451">class_id = class.id &#171;&#21253;&#21547;&#23398;&#29983;&#187;</text><text fill="#000000" font-family="sans-serif" font-size="13" lengthAdjust="spacing" textLength="7" x="464.9936" y="95.0429">1</text><text fill="#000000" font-family="sans-serif" font-size="13" lengthAdjust="spacing" textLength="22" x="486.8734" y="90.9686">0..n</text></g><!--SRC=[ZL9DIyD04BtdLmovM15Bwx5KGGHH114HhoKqguscIKcsXoA2g9LgHJrKnAgee58GxQ62QUl7Zp6Rr9D_mKcsrjfMyRBCxioyz-RDze5JkcHdHxQrzl5KT0ib9_TeMtkDyejRoZiN5dlT45IoG87gO2YB2GgoOf0uLNHDC9SLBIKPKX9KHICqaoAW6pIX2mBHg48p87AyGDeaHhy8aWbU12i2m00eCaHWSdeEej6PgP4HV1iSnCEhqAGamUJywEpOnEXi81mAzMF6q5N2MxmBaTHOhxhLRtO-H22kIgR9wVtmRtw_f1DvY2kWH8edY15hQnttMhiusVuwciYPOqiwkYEt2MY-_4T79nE0ITCoalNCI3HjDXr2INt0iXMtKcVtHRkwBVZMYs4HuK4C1OEQsBGZqZxNiB-084RHgFryQbirv_2OMJcMEs7r6lBy1lCrLAHTOJSQkxjn2-Tivu9bhn6DA_WJhcN4C0yv6jlDieDRZeOucav9yt_g2pyGq9X6-RfnMKBvxctUhctnfjOdjwlvzwC7jxY9bUogoCfLx_GNoFrxMrl7zShWSNm2]--></g></svg>